<svg width="155" height="44" viewBox="0 0 155 44" fill="none" xmlns="http://www.w3.org/2000/svg">
<path d="M24.7355 24.7586C24.7355 24.7586 24.7815 24.7586 24.7815 24.8046C24.7815 24.7586 24.7815 24.7586 24.7355 24.7586Z" fill="#3583DD"/>
<path d="M24.5517 24.7585C24.5977 24.7585 24.5977 24.7585 24.6436 24.7585C24.5977 24.7126 24.5517 24.7126 24.5517 24.7585Z" fill="#3583DD"/>
<path d="M23.2183 23.8391C23.3563 23.8391 23.4942 23.977 23.4942 24.115C23.4942 23.9311 23.4023 23.8391 23.2183 23.8391C23.0804 23.8391 22.9425 23.9311 22.9425 24.115C22.9885 23.977 23.0804 23.8391 23.2183 23.8391Z" fill="#3583DD"/>
<path d="M25.1953 37.0345C25.3332 37.0345 25.4712 36.8966 25.4712 36.7587C25.4712 36.9426 25.3332 37.0345 25.1953 37.0345Z" fill="#3583DD"/>
<path d="M25.1953 37.0345C25.0573 37.0345 24.9194 36.8966 24.9194 36.7587C24.9194 36.9426 25.0573 37.0345 25.1953 37.0345Z" fill="#3583DD"/>
<path d="M24.3678 24.9885C24.3678 25.1264 24.5057 25.2644 24.6437 25.2644C24.5057 25.2644 24.3678 25.1264 24.3678 24.9885Z" fill="#3583DD"/>
<path d="M24.4138 24.8964C24.4138 24.8964 24.4138 24.8504 24.4598 24.8504C24.4138 24.8504 24.4138 24.8505 24.4138 24.8964Z" fill="#3583DD"/>
<path d="M23.4943 17.1724C23.4943 17.0344 23.6322 16.8965 23.7701 16.8965C23.5862 16.8965 23.4943 17.0344 23.4943 17.1724C23.4943 17.3103 23.6322 17.4482 23.7701 17.4482C23.5862 17.4482 23.4943 17.3103 23.4943 17.1724Z" fill="#3583DD"/>
<path d="M31.8161 30.6895C31.6782 30.6895 31.5403 30.5516 31.5403 30.4137C31.5403 30.5976 31.6322 30.6895 31.8161 30.6895C31.9541 30.6895 32.092 30.5516 32.092 30.4137C32.046 30.5516 31.9541 30.6895 31.8161 30.6895Z" fill="#3583DD"/>
<path d="M29.1494 19.4712C29.1494 19.3333 29.2873 19.1954 29.4252 19.1954C29.2873 19.1954 29.1494 19.3333 29.1494 19.4712C29.1494 19.6092 29.2873 19.7471 29.4252 19.7471C29.2873 19.7471 29.1494 19.6551 29.1494 19.4712Z" fill="#3583DD"/>
<path d="M32.5058 22.8734C32.3678 22.8734 32.2299 22.7355 32.2299 22.5976C32.2299 22.7355 32.3678 22.8734 32.5058 22.8734Z" fill="#3583DD"/>
<path d="M27.5402 33.6781C27.5402 33.816 27.6781 33.954 27.816 33.954C27.6321 33.954 27.5402 33.816 27.5402 33.6781Z" fill="#3583DD"/>
<path d="M26.3447 33.6781C26.3447 33.816 26.4827 33.954 26.6206 33.954C26.4827 33.954 26.3447 33.816 26.3447 33.6781Z" fill="#3583DD"/>
<path d="M26.2529 36.1608C26.3908 36.1608 26.5287 36.0228 26.5287 35.8849C26.5287 36.0228 26.4368 36.1608 26.2529 36.1608C26.1149 36.1608 25.977 36.0228 25.977 35.8849C25.977 36.0228 26.1149 36.1608 26.2529 36.1608Z" fill="#3583DD"/>
<path d="M26.6206 27.977C26.4827 27.977 26.3447 28.115 26.3447 28.2529C26.3447 28.115 26.4827 27.977 26.6206 27.977Z" fill="#3583DD"/>
<path d="M37.931 10.3678C37.793 10.3678 37.6551 10.2299 37.6551 10.092C37.6551 9.95405 37.793 9.8161 37.931 9.8161C37.793 9.8161 37.6551 9.95405 37.6551 10.092C37.6551 10.2299 37.793 10.3678 37.931 10.3678Z" fill="#3583DD"/>
<path d="M27.816 27.977C27.6781 27.977 27.5402 28.115 27.5402 28.2529C27.5402 28.115 27.6321 27.977 27.816 27.977Z" fill="#3583DD"/>
<path d="M27.8161 33.954C27.954 33.954 28.092 33.816 28.092 33.6781C28.092 33.816 27.954 33.954 27.8161 33.954Z" fill="#3583DD"/>
<path d="M21.747 34.046C21.8849 34.046 22.0229 33.9081 22.0229 33.7702C22.0229 33.9541 21.8849 34.046 21.747 34.046C21.6091 34.046 21.4711 33.9081 21.4711 33.7702C21.4711 33.9541 21.5631 34.046 21.747 34.046Z" fill="#3583DD"/>
<path d="M6.06883 17.3104C6.06883 17.2644 6.06883 17.2644 6.06883 17.3104C6.06883 17.2644 6.06883 17.2644 6.06883 17.3104C6.06883 17.4483 6.20677 17.5862 6.3447 17.5862C6.20677 17.5403 6.06883 17.4483 6.06883 17.3104Z" fill="#3583DD"/>
<path d="M14.8504 11.5631C14.7125 11.5631 14.5746 11.4252 14.5746 11.2872C14.5746 11.4252 14.7125 11.5631 14.8504 11.5631C14.9884 11.5631 15.1263 11.4252 15.1263 11.2872C15.1263 11.4252 14.9884 11.5631 14.8504 11.5631Z" fill="#3583DD"/>
<path d="M20.3677 32.3908C20.4137 32.4828 20.5057 32.5288 20.5976 32.5747C20.5057 32.5288 20.4137 32.4828 20.3677 32.3908Z" fill="#3583DD"/>
<path d="M20.3677 32.3908C20.3677 32.3448 20.3677 32.3448 20.3677 32.2988C20.3217 32.3448 20.3677 32.3448 20.3677 32.3908Z" fill="#3583DD"/>
<path d="M18.6206 7.65506C18.4827 7.65506 18.3448 7.51711 18.3448 7.37918C18.3448 7.56309 18.4367 7.65506 18.6206 7.65506Z" fill="#3583DD"/>
<path d="M16.0919 4.52875C15.954 4.52875 15.816 4.6667 15.816 4.80463C15.816 4.6667 15.954 4.52875 16.0919 4.52875Z" fill="#3583DD"/>
<path d="M3.58608 15.8849C3.44815 15.8849 3.31021 16.0229 3.31021 16.1608C3.31021 15.9769 3.40217 15.8849 3.58608 15.8849Z" fill="#3583DD"/>
<path d="M19.4481 36.3907C19.3102 36.3907 19.1723 36.2527 19.1723 36.1148C19.1723 36.2527 19.3102 36.3907 19.4481 36.3907Z" fill="#3583DD"/>
<path d="M23.0805 15.9309C23.2184 15.9309 23.3564 15.793 23.3564 15.655C23.3564 15.793 23.2184 15.9309 23.0805 15.9309C22.9426 15.9309 22.8046 15.793 22.8046 15.655C22.8046 15.793 22.8966 15.9309 23.0805 15.9309Z" fill="#3583DD"/>
<path d="M4.78156 16.2528C4.78156 16.1149 4.9195 15.977 5.05743 15.977C4.87352 15.977 4.78156 16.1149 4.78156 16.2528C4.78156 16.3907 4.9195 16.5287 5.05743 16.5287C4.87352 16.5287 4.78156 16.4367 4.78156 16.2528Z" fill="#3583DD"/>
<path d="M4.27573 13.1723C4.1378 13.1723 3.99986 13.0344 3.99986 12.8964C3.99986 13.0803 4.1378 13.2183 4.27573 13.1723C4.41366 13.1723 4.55159 13.0344 4.55159 12.8964C4.55159 13.0803 4.41366 13.1723 4.27573 13.1723Z" fill="#3583DD"/>
<path d="M19.5402 9.12638C19.4023 9.12638 19.2643 8.98846 19.2643 8.85052C19.2643 9.03443 19.3563 9.12638 19.5402 9.12638C19.6781 9.12638 19.816 8.98846 19.816 8.85052C19.816 9.03443 19.6781 9.12638 19.5402 9.12638Z" fill="#3583DD"/>
<path d="M23.5403 38.7355C23.4023 38.7355 23.2644 38.5976 23.2644 38.4597C23.2644 38.6436 23.4023 38.7355 23.5403 38.7355Z" fill="#3583DD"/>
<path d="M15.816 4.80466C15.816 4.94259 15.954 5.08051 16.0919 5.08051C15.954 5.08051 15.816 4.94259 15.816 4.80466Z" fill="#3583DD"/>
<path d="M13.3333 16.3449C13.1954 16.3449 13.0574 16.2069 13.0574 16.069C13.0574 16.2069 13.1954 16.3449 13.3333 16.3449C13.4712 16.3449 13.6092 16.2069 13.6092 16.069C13.6092 16.2069 13.4712 16.3449 13.3333 16.3449Z" fill="#3583DD"/>
<path d="M29.931 4.89645C29.7931 4.89645 29.6552 5.03437 29.6552 5.1723C29.6552 5.03437 29.7931 4.89645 29.931 4.89645Z" fill="#3583DD"/>
<path d="M29.6552 5.17236C29.6552 5.31029 29.7931 5.44821 29.931 5.44821C29.7931 5.44821 29.6552 5.31029 29.6552 5.17236Z" fill="#3583DD"/>
<path d="M37.0575 18.1839C37.1954 18.1839 37.3333 18.046 37.3333 17.9081C37.3333 18.046 37.1954 18.1839 37.0575 18.1839C36.9196 18.1839 36.7816 18.046 36.7816 17.9081C36.7816 18.046 36.9196 18.1839 37.0575 18.1839Z" fill="#3583DD"/>
<path d="M27.5862 8.85047C27.5862 8.71254 27.7241 8.57462 27.8621 8.57462C27.7241 8.57462 27.5862 8.71254 27.5862 8.85047C27.5862 8.9884 27.7241 9.12632 27.8621 9.12632C27.7241 9.12632 27.5862 8.9884 27.5862 8.85047Z" fill="#3583DD"/>
<path d="M35.3562 20.0688C35.2183 20.0688 35.0804 19.9309 35.0804 19.793C35.0804 19.9309 35.2183 20.0688 35.3562 20.0688C35.4941 20.0688 35.6321 19.9309 35.6321 19.793C35.6321 19.9309 35.4941 20.0688 35.3562 20.0688Z" fill="#3583DD"/>
<path d="M34.9425 5.35639C34.8045 5.35639 34.6666 5.21844 34.6666 5.08051C34.6666 4.94258 34.8045 4.80466 34.9425 4.80466C34.8045 4.80466 34.6666 4.94258 34.6666 5.08051C34.6666 5.26442 34.8045 5.35639 34.9425 5.35639Z" fill="#3583DD"/>
<path d="M33.5171 16.2068C33.6551 16.2068 33.793 16.0689 33.793 15.9309C33.793 16.0689 33.701 16.2068 33.5171 16.2068C33.3792 16.2068 33.2413 16.0689 33.2413 15.9309C33.2873 16.0689 33.3792 16.2068 33.5171 16.2068Z" fill="#3583DD"/>
<path d="M33.2873 5.08042C33.2873 4.94249 33.4253 4.80457 33.5632 4.80457C33.6552 4.80457 33.7011 4.85055 33.7471 4.89653C33.7011 4.85055 33.6092 4.80457 33.5172 4.80457C33.3793 4.75859 33.2414 4.89651 33.2873 5.08042C33.2873 5.17237 33.3333 5.26432 33.4253 5.3103C33.3333 5.26432 33.2873 5.17237 33.2873 5.08042Z" fill="#3583DD"/>
<path d="M31.724 4.02295C31.724 4.16088 31.5861 4.2988 31.4482 4.2988C31.3102 4.2988 31.1723 4.16088 31.1723 4.02295C31.1723 4.16088 31.3102 4.2988 31.4482 4.2988C31.5861 4.2988 31.724 4.20686 31.724 4.02295Z" fill="#3583DD"/>
<path d="M34.9425 16.2068C34.8045 16.2068 34.6666 16.0689 34.6666 15.9309C34.6666 16.0689 34.8045 16.2068 34.9425 16.2068C35.0804 16.2068 35.2183 16.0689 35.2183 15.9309C35.2183 16.0689 35.1264 16.2068 34.9425 16.2068Z" fill="#3583DD"/>
<path d="M1.0114 10.8275C1.3669 10.8275 1.65509 10.5394 1.65509 10.1839C1.65509 9.82839 1.3669 9.54019 1.0114 9.54019C0.655911 9.54019 0.367729 9.82839 0.367729 10.1839C0.367729 10.5394 0.655911 10.8275 1.0114 10.8275Z" fill="#3583DD"/>
<path d="M23.5401 10.8275C23.8956 10.8275 24.1838 10.5394 24.1838 10.1839C24.1838 9.82839 23.8956 9.54019 23.5401 9.54019C23.1846 9.54019 22.8965 9.82839 22.8965 10.1839C22.8965 10.5394 23.1846 10.8275 23.5401 10.8275Z" fill="#3583DD"/>
<path d="M32.4137 29.6782C32.5517 29.6782 32.6896 29.5403 32.6896 29.4023C32.6896 29.5403 32.5517 29.6782 32.4137 29.6782C32.2758 29.6782 32.1379 29.5403 32.1379 29.4023C32.1379 29.5403 32.2758 29.6782 32.4137 29.6782Z" fill="#3583DD"/>
<path d="M30.8045 23.9311C30.6666 23.9311 30.5287 23.7931 30.5287 23.6552C30.5287 23.7931 30.6206 23.9311 30.8045 23.9311Z" fill="#3583DD"/>
<path d="M25.1034 11.8391C24.9655 11.8391 24.8276 11.977 24.8276 12.1149C24.8276 11.977 24.9655 11.8391 25.1034 11.8391Z" fill="#3583DD"/>
<path d="M29.793 25.3104C29.9309 25.3104 30.0688 25.1724 30.0688 25.0345C30.0688 25.1724 29.9309 25.3104 29.793 25.3104C29.6551 25.3104 29.5171 25.1724 29.5171 25.0345C29.5171 25.1724 29.6091 25.3104 29.793 25.3104Z" fill="#3583DD"/>
<path d="M26.115 8.85047C26.115 8.71254 26.2529 8.57462 26.3909 8.57462C26.207 8.57462 26.069 8.71254 26.115 8.85047C26.115 8.9884 26.2529 9.12632 26.3909 9.12632C26.207 9.12632 26.115 8.9884 26.115 8.85047Z" fill="#3583DD"/>
<path d="M24.8276 12.1149C24.8276 12.2529 24.9655 12.3908 25.1034 12.3908C24.9655 12.3908 24.8276 12.2988 24.8276 12.1149Z" fill="#3583DD"/>
<path d="M38.3447 6.7355C38.2068 6.7355 38.0689 6.59756 38.0689 6.45963C38.0689 6.59756 38.1608 6.7355 38.3447 6.7355C38.4827 6.7355 38.6206 6.59756 38.6206 6.45963C38.6206 6.59756 38.4827 6.7355 38.3447 6.7355Z" fill="#3583DD"/>
<path d="M32.3677 25.7242C32.2298 25.7242 32.0919 25.5862 32.0919 25.4483C32.0919 25.5862 32.2298 25.7242 32.3677 25.7242C32.5056 25.7242 32.6436 25.5862 32.6436 25.4483C32.6436 25.5862 32.5056 25.7242 32.3677 25.7242Z" fill="#3583DD"/>
<path d="M41.4713 16.161C41.4713 16.115 41.4713 16.115 41.4713 16.069C41.4253 16.115 41.4253 16.161 41.4713 16.161Z" fill="#3583DD"/>
<path d="M41.7472 18.9655C41.7472 19.1034 41.6092 19.2413 41.4713 19.2413C41.3334 19.2413 41.1954 19.1034 41.1954 18.9655C41.1954 19.1034 41.3334 19.2413 41.4713 19.2413C41.6092 19.2413 41.7472 19.1034 41.7472 18.9655Z" fill="#3583DD"/>
<path d="M40.9195 14.1838C40.7815 14.1838 40.6436 14.0459 40.6436 13.908C40.6436 14.0919 40.7815 14.1838 40.9195 14.1838C41.0574 14.1838 41.1954 14.0459 41.1954 13.908C41.1954 14.0459 41.0574 14.1838 40.9195 14.1838Z" fill="#3583DD"/>
<path d="M38.2069 8.71262C38.069 8.71262 37.931 8.57467 37.931 8.43674C37.931 8.29881 38.069 8.16089 38.2069 8.16089C38.069 8.16089 37.931 8.29881 37.931 8.43674C37.931 8.57467 38.069 8.71262 38.2069 8.71262Z" fill="#3583DD"/>
<path d="M41.4711 16.1608C41.5171 16.2528 41.6091 16.2988 41.701 16.2988C41.5631 16.3447 41.5171 16.2528 41.4711 16.1608Z" fill="#3583DD"/>
<path d="M33.6552 27.1953C33.5173 27.1953 33.3794 27.0573 33.3794 26.9194C33.3794 27.0573 33.4713 27.1953 33.6552 27.1953C33.7931 27.1953 33.9311 27.0573 33.9311 26.9194C33.9311 27.0573 33.7931 27.1953 33.6552 27.1953Z" fill="#3583DD"/>
<path d="M41.9769 16.069C41.9769 16.2069 41.8389 16.3449 41.701 16.3449C41.8389 16.3449 41.9769 16.2069 41.9769 16.069Z" fill="#3583DD"/>
<path d="M36.3678 16.2068C36.2299 16.2068 36.0919 16.0689 36.0919 15.9309C36.0919 16.0689 36.1839 16.2068 36.3678 16.2068C36.5058 16.2068 36.6437 16.0689 36.6437 15.9309C36.5977 16.0689 36.5058 16.2068 36.3678 16.2068Z" fill="#3583DD"/>
<path d="M36.3678 4.85043C36.2299 4.85043 36.0919 4.98838 36.0919 5.12631C36.0919 4.9424 36.2299 4.85043 36.3678 4.85043Z" fill="#3583DD"/>
<path d="M36.6437 5.21838C36.6437 5.21838 36.6437 5.26438 36.5977 5.26438C36.5977 5.2184 36.5977 5.21838 36.6437 5.21838Z" fill="#3583DD"/>
<path d="M42.115 14C41.977 14 41.8391 13.8621 41.8391 13.7242C41.8391 13.9081 41.977 14.046 42.115 14C42.2529 14 42.3908 13.8621 42.3908 13.7242C42.3908 13.9081 42.2529 14 42.115 14Z" fill="#3583DD"/>
<path d="M39.4942 13.862C39.4942 13.9999 39.6321 14.1378 39.7701 14.1378C39.6321 14.1378 39.4942 13.9999 39.4942 13.862Z" fill="#3583DD"/>
<path d="M37.839 16.7126C37.701 16.7126 37.5631 16.5747 37.5631 16.4367C37.5631 16.5747 37.6551 16.7126 37.839 16.7126C37.9769 16.7126 38.1148 16.5747 38.1148 16.4367C38.1148 16.5747 37.9769 16.7126 37.839 16.7126Z" fill="#3583DD"/>
<path d="M37.5631 12.7585C37.5631 12.6206 37.701 12.4827 37.839 12.4827C37.6551 12.4827 37.5631 12.5746 37.5631 12.7585Z" fill="#3583DD"/>
<path d="M26.6206 33.954C26.7586 33.954 26.8965 33.816 26.8965 33.6781C26.8965 33.816 26.7586 33.954 26.6206 33.954Z" fill="#3583DD"/>
<path d="M18.8045 13.6781C18.9424 13.6781 19.0804 13.5402 19.0804 13.4022C19.0804 13.5402 18.9424 13.6781 18.8045 13.6781C18.6666 13.6781 18.5286 13.5402 18.5286 13.4022C18.5286 13.5402 18.6206 13.6781 18.8045 13.6781Z" fill="#3583DD"/>
<path d="M6.4828 16.0229C6.62073 16.0229 6.75865 15.885 6.75865 15.7471C6.75865 15.885 6.62073 16.0229 6.4828 16.0229Z" fill="#3583DD"/>
<path d="M4.27573 14.5058C4.1378 14.5058 3.99986 14.3679 3.99986 14.2299C3.99986 14.3679 4.1378 14.5058 4.27573 14.5058C4.41366 14.5058 4.55159 14.3679 4.55159 14.2299C4.55159 14.3679 4.41366 14.5058 4.27573 14.5058Z" fill="#3583DD"/>
<path d="M19.8161 14.8275C19.954 14.8275 20.0919 14.6896 20.0919 14.5516C20.0919 14.6896 19.954 14.8275 19.8161 14.8275C19.6782 14.8275 19.5402 14.6896 19.5402 14.5516C19.5402 14.6896 19.6322 14.8275 19.8161 14.8275Z" fill="#3583DD"/>
<path d="M13.4711 13.678C13.3332 13.678 13.1953 13.5401 13.1953 13.4022C13.1953 13.2643 13.3332 13.1263 13.4711 13.1263C13.3332 13.1263 13.1953 13.2643 13.1953 13.4022C13.1953 13.5861 13.2872 13.678 13.4711 13.678Z" fill="#3583DD"/>
<path d="M22.8504 13.862C22.8504 13.9999 22.9884 14.1378 23.1263 14.1378C22.9884 14.1378 22.8504 13.9999 22.8504 13.862Z" fill="#3583DD"/>
<path d="M23.1724 14.138C23.2643 14.138 23.3563 14.046 23.4022 14C23.3563 14.046 23.2643 14.138 23.1724 14.138Z" fill="#3583DD"/>
<path d="M6.20689 15.7471C6.20689 15.885 6.29885 16.0229 6.48276 16.0229C6.34483 15.9769 6.20689 15.885 6.20689 15.7471Z" fill="#3583DD"/>
<path d="M11.5403 22.9655C11.6782 22.9655 11.8161 22.8276 11.8161 22.6897C11.8161 22.8276 11.6782 22.9655 11.5403 22.9655Z" fill="#3583DD"/>
<path d="M16.8276 28.2069C16.9656 28.2069 17.1035 28.0689 17.1035 27.931C17.1035 28.0689 16.9656 28.2069 16.8276 28.2069Z" fill="#3583DD"/>
<path d="M11.5402 22.4138C11.4023 22.4138 11.2644 22.5517 11.2644 22.6896C11.2644 22.5057 11.3563 22.4138 11.5402 22.4138Z" fill="#3583DD"/>
<path d="M7.77003 20.2069C7.6321 20.2069 7.49416 20.069 7.49416 19.931C7.49416 20.1149 7.6321 20.2069 7.77003 20.2069C7.90796 20.2069 8.04589 20.069 8.04589 19.931C8.04589 20.069 7.95394 20.2069 7.77003 20.2069Z" fill="#3583DD"/>
<path d="M18.023 24.8506C17.8851 24.8506 17.7472 24.7127 17.7472 24.5748C17.7931 24.7127 17.8851 24.8506 18.023 24.8506C18.161 24.8506 18.2989 24.7127 18.2989 24.5748C18.2989 24.7127 18.2069 24.8506 18.023 24.8506Z" fill="#3583DD"/>
<path d="M14.7126 6.96539C14.5747 6.96539 14.4367 6.82745 14.4367 6.68951C14.4367 6.87342 14.5747 7.01137 14.7126 6.96539C14.8505 6.96539 14.9885 6.82745 14.9885 6.68951C14.9885 6.87342 14.8505 6.96539 14.7126 6.96539Z" fill="#3583DD"/>
<path d="M3.67812 10.6436C3.54019 10.6436 3.40225 10.5056 3.40225 10.3677C3.40225 10.5056 3.54019 10.6436 3.67812 10.6436C3.81605 10.6436 3.95398 10.5056 3.95398 10.3677C3.95398 10.5056 3.86203 10.6436 3.67812 10.6436Z" fill="#3583DD"/>
<path d="M1.83913 15.0115C2.19462 15.0115 2.4828 14.7233 2.4828 14.3678C2.4828 14.0123 2.19462 13.7242 1.83913 13.7242C1.48363 13.7242 1.19545 14.0123 1.19545 14.3678C1.19545 14.7233 1.48363 15.0115 1.83913 15.0115Z" fill="#3583DD"/>
<path d="M20.1839 39.5172C20.5394 39.5172 20.8276 39.229 20.8276 38.8735C20.8276 38.518 20.5394 38.2298 20.1839 38.2298C19.8284 38.2298 19.5402 38.518 19.5402 38.8735C19.5402 39.229 19.8284 39.5172 20.1839 39.5172Z" fill="#3583DD"/>
<path d="M14.8504 4.75858C14.7125 4.75858 14.5746 4.62066 14.5746 4.48273C14.5746 4.62066 14.7125 4.75858 14.8504 4.75858C14.9884 4.75858 15.1263 4.62066 15.1263 4.48273C15.1263 4.62066 14.9884 4.75858 14.8504 4.75858Z" fill="#3583DD"/>
<path d="M23.5401 41.7242C23.8956 41.7242 24.1838 41.436 24.1838 41.0805C24.1838 40.725 23.8956 40.4368 23.5401 40.4368C23.1846 40.4368 22.8965 40.725 22.8965 41.0805C22.8965 41.436 23.1846 41.7242 23.5401 41.7242Z" fill="#3583DD"/>
<path d="M25.1493 6.50565C24.7815 6.50565 24.5057 6.78149 24.5057 7.14931C24.5057 7.51712 24.7815 7.793 25.1493 7.793C25.5171 7.793 25.793 7.51712 25.793 7.14931C25.793 6.78149 25.5171 6.50565 25.1493 6.50565Z" fill="#3583DD"/>
<path d="M41.701 23.4712C42.0565 23.4712 42.3447 23.1831 42.3447 22.8276C42.3447 22.4721 42.0565 22.1839 41.701 22.1839C41.3455 22.1839 41.0574 22.4721 41.0574 22.8276C41.0574 23.1831 41.3455 23.4712 41.701 23.4712Z" fill="#3583DD"/>
<path d="M14.4367 5.72418C14.4367 5.86211 14.5747 6.00003 14.7126 6.00003C14.5747 6.00003 14.4367 5.86211 14.4367 5.72418Z" fill="#3583DD"/>
<path d="M12.7356 7.97702C12.7356 8.11495 12.5977 8.2529 12.4598 8.2529C12.3218 8.2529 12.1839 8.11495 12.1839 7.97702C12.1839 8.11495 12.3218 8.2529 12.4598 8.2529C12.6437 8.2529 12.7356 8.11495 12.7356 7.97702Z" fill="#3583DD"/>
<path d="M16.5517 28.023C16.5977 28.115 16.6897 28.161 16.7816 28.161C16.6897 28.161 16.5977 28.115 16.5517 28.023Z" fill="#3583DD"/>
<path d="M14.7126 6.00003C14.8506 6.00003 14.9885 5.86211 14.9885 5.72418C14.9885 5.86211 14.8506 6.00003 14.7126 6.00003Z" fill="#3583DD"/>
<path d="M8.91949 11.839C9.05743 11.839 9.19536 11.7011 9.19536 11.5631C9.19536 11.7011 9.1034 11.839 8.91949 11.839Z" fill="#3583DD"/>
<path d="M8.64359 11.5631C8.64359 11.7011 8.78152 11.839 8.91945 11.839C8.78152 11.839 8.64359 11.7011 8.64359 11.5631Z" fill="#3583DD"/>
<path d="M7.90808 10.8276C7.77014 10.8276 7.63223 10.6897 7.63223 10.5518C7.63223 10.7357 7.77014 10.8276 7.90808 10.8276C8.04601 10.8276 8.18394 10.6897 8.18394 10.5518C8.18394 10.6897 8.09198 10.8276 7.90808 10.8276Z" fill="#3583DD"/>
<path d="M5.93095 10.7356C5.79302 10.7356 5.65508 10.5976 5.65508 10.4597C5.65508 10.6436 5.74704 10.7815 5.93095 10.7356C6.06888 10.7356 6.20681 10.5976 6.20681 10.4597C6.16084 10.6436 6.06888 10.7356 5.93095 10.7356Z" fill="#3583DD"/>
<path d="M43.9539 19.4713C43.5861 19.4713 43.3102 19.7471 43.3102 20.1149C43.3102 20.4828 43.5861 20.7586 43.9539 20.7586C44.3217 20.7586 44.5976 20.4828 44.5976 20.1149C44.5976 19.7931 44.3217 19.4713 43.9539 19.4713Z" fill="#3583DD"/>
<path d="M6.06883 18.6896C6.06883 18.8275 6.20677 18.9654 6.3447 18.9654C6.20677 18.9654 6.06883 18.8275 6.06883 18.6896Z" fill="#3583DD"/>
<path d="M9.47127 21.3104C9.47127 21.4483 9.33333 21.5862 9.1954 21.5862C9.37931 21.5862 9.47127 21.4483 9.47127 21.3104C9.47127 21.3104 9.47127 21.2644 9.47127 21.3104C9.47127 21.2644 9.47127 21.3104 9.47127 21.3104Z" fill="#3583DD"/>
<path d="M18.9884 30.8735C18.9884 31.0114 19.1263 31.1493 19.2643 31.1493C19.0804 31.1493 18.9884 31.0114 18.9884 30.8735Z" fill="#3583DD"/>
<path d="M8.96552 21.4022C9.01149 21.4941 9.10345 21.5401 9.1954 21.5861C9.10345 21.5401 9.01149 21.4941 8.96552 21.4022Z" fill="#3583DD"/>
<path d="M8.96543 21.4023C8.96543 21.3563 8.96543 21.3563 8.96543 21.3103C8.91945 21.3563 8.91945 21.3563 8.96543 21.4023Z" fill="#3583DD"/>
<path d="M17.7931 26.5516C17.6552 26.5516 17.5173 26.4137 17.5173 26.2758C17.5173 26.4597 17.6092 26.5516 17.7931 26.5516C17.9311 26.5516 18.069 26.4137 18.069 26.2758C18.023 26.4137 17.9311 26.5516 17.7931 26.5516Z" fill="#3583DD"/>
<path d="M2.02299 10.138C2.02299 9.90808 1.97701 9.72417 1.83908 9.58624L8.64367 2.73568H12.2299H15.8161L22.6207 9.58624C22.5287 9.77015 22.4368 9.95406 22.4368 10.138C22.4368 10.6897 22.8965 11.1495 23.4483 11.1495C24 11.1495 24.4598 10.6897 24.4598 10.138C24.5057 9.58624 24 9.12647 23.4483 9.12647C23.2644 9.12647 23.1264 9.17247 22.9885 9.26442L16.046 2.27591H12.2759H8.50575L1.47126 9.26442C1.33332 9.17247 1.14942 9.12647 1.01149 9.12647C0.459762 9.12647 0 9.58624 0 10.138C0 10.6897 0.459762 11.1495 1.01149 11.1495C1.56321 11.1495 2.02299 10.7357 2.02299 10.138ZM23.5402 9.54027C23.908 9.54027 24.1839 9.81615 24.1839 10.184C24.1839 10.5518 23.908 10.8276 23.5402 10.8276C23.1724 10.8276 22.8965 10.5518 22.8965 10.184C22.8965 9.81615 23.2184 9.54027 23.5402 9.54027ZM0.36781 10.184C0.36781 9.81615 0.64367 9.54027 1.01149 9.54027C1.3793 9.54027 1.65518 9.81615 1.65518 10.184C1.65518 10.5518 1.3793 10.8276 1.01149 10.8276C0.64367 10.8276 0.36781 10.5058 0.36781 10.184Z" fill="#3583DD"/>
<path d="M44.2759 19.1494V9.54024L36.7816 2H29.885L25.7931 6.36782C25.6092 6.22989 25.3793 6.13793 25.1494 6.13793C24.5977 6.13793 24.1379 6.59771 24.1379 7.14943C24.1379 7.70116 24.5977 8.16093 25.1494 8.16093C25.7011 8.16093 26.1609 7.70116 26.1609 7.14943C26.1609 7.0115 26.1149 6.82759 26.0689 6.68966L30.1149 2.64369H36.7816L43.7701 9.72416L43.954 19.0575C43.4023 19.0575 42.9425 19.5173 42.9425 20.069C42.9425 20.6207 43.4023 21.0805 43.954 21.0805C44.5057 21.0805 44.9655 20.6207 44.9655 20.069C45.0115 19.6552 44.6897 19.2874 44.2759 19.1494ZM25.1494 7.79312C24.7816 7.79312 24.5057 7.51725 24.5057 7.14943C24.5057 6.78161 24.7816 6.50577 25.1494 6.50577C25.5172 6.50577 25.7931 6.78161 25.7931 7.14943C25.7931 7.51725 25.5172 7.79312 25.1494 7.79312ZM43.954 20.7586C43.5862 20.7586 43.3103 20.4828 43.3103 20.115C43.3103 19.7471 43.5862 19.4713 43.954 19.4713C44.3218 19.4713 44.5977 19.7471 44.5977 20.115C44.5977 20.4828 44.3218 20.7586 43.954 20.7586Z" fill="#3583DD"/>
<path d="M41.7011 21.7701C41.1494 21.7701 40.6896 22.2299 40.6896 22.7816C40.6896 22.9195 40.7356 23.0575 40.7816 23.1954L23.954 40.069C23.8161 40.023 23.6781 39.977 23.5402 39.977C22.9885 39.977 22.5287 40.4368 22.5287 40.9885C22.5287 41.5402 22.9885 42 23.5402 42C24.0919 42 24.5517 41.5402 24.5517 40.9885C24.5517 40.7586 24.4598 40.5287 24.3678 40.3908L41.4253 23.7012C41.5172 23.7471 41.6092 23.7471 41.7011 23.7471C42.2529 23.7471 42.7126 23.2874 42.7126 22.7356C42.7126 22.2299 42.2529 21.7701 41.7011 21.7701ZM23.5402 41.7241C23.1724 41.7241 22.8965 41.4483 22.8965 41.0805C22.8965 40.7126 23.1724 40.4368 23.5402 40.4368C23.908 40.4368 24.1839 40.7126 24.1839 41.0805C24.1839 41.4483 23.908 41.7241 23.5402 41.7241ZM41.7011 23.4713C41.3333 23.4713 41.0575 23.1954 41.0575 22.8276C41.0575 22.4598 41.3333 22.1839 41.7011 22.1839C42.069 22.1839 42.3448 22.4598 42.3448 22.8276C42.3448 23.1954 42.069 23.4713 41.7011 23.4713Z" fill="#3583DD"/>
<path d="M20.1839 37.8619C20 37.8619 19.8161 37.9079 19.6782 37.9999L2.11495 20.4826L2.16091 15.3792C2.62068 15.2413 2.94253 14.8734 2.94253 14.3677C2.94253 13.816 2.48275 13.3562 1.93103 13.3562C1.3793 13.3562 0.91954 13.816 0.91954 14.3677C0.91954 14.8734 1.28735 15.2872 1.74712 15.3792V20.8045L19.4023 38.4137C19.3103 38.5516 19.2644 38.7355 19.2644 38.9194C19.2644 39.4712 19.7241 39.9309 20.2759 39.9309C20.8276 39.9309 21.2873 39.4712 21.2873 38.9194C21.2414 38.3217 20.7356 37.8619 20.1839 37.8619ZM1.24137 14.3677C1.24137 13.9999 1.51724 13.724 1.88506 13.724C2.25288 13.724 2.52874 13.9999 2.52874 14.3677C2.52874 14.7355 2.25288 15.0114 1.88506 15.0114C1.51724 15.0114 1.24137 14.6895 1.24137 14.3677ZM20.1839 39.5171C19.8161 39.5171 19.5402 39.2413 19.5402 38.8734C19.5402 38.5056 19.8161 38.2298 20.1839 38.2298C20.5517 38.2298 20.8276 38.5056 20.8276 38.8734C20.8276 39.2413 20.5517 39.5171 20.1839 39.5171Z" fill="#3583DD"/>
<path d="M11.5402 22.4138C11.4023 22.4138 11.2644 22.5517 11.2644 22.6896C11.2644 22.8275 11.4023 22.9655 11.5402 22.9655C11.6782 22.9655 11.8161 22.8275 11.8161 22.6896C11.8161 22.5517 11.6782 22.4138 11.5402 22.4138Z" fill="#3583DD"/>
<path d="M16.8275 28.3449C17.0573 28.3449 17.2412 28.161 17.2412 27.9311C17.2412 27.7012 17.0573 27.5173 16.8275 27.5173C16.7815 27.5173 16.7355 27.5173 16.6895 27.5633L11.9079 22.8276C11.9079 22.7817 11.9539 22.7357 11.9539 22.6897C11.9539 22.4598 11.77 22.2759 11.5401 22.2759C11.3102 22.2759 11.1263 22.4598 11.1263 22.6897C11.1263 22.9196 11.3102 23.1035 11.5401 23.1035C11.5861 23.1035 11.678 23.1035 11.724 23.0575L16.4596 27.7931C16.4596 27.8391 16.4137 27.8851 16.4137 27.9311C16.4137 28.161 16.5976 28.3449 16.8275 28.3449ZM16.8275 27.6552C16.9654 27.6552 17.1033 27.7931 17.1033 27.9311C17.1033 28.069 16.9654 28.2069 16.8275 28.2069C16.7355 28.2069 16.6435 28.115 16.5976 28.069C16.5976 28.023 16.5976 28.023 16.5976 27.977C16.5516 27.7472 16.6435 27.6552 16.8275 27.6552ZM11.5401 22.9656C11.4022 22.9656 11.2642 22.8276 11.2642 22.6897C11.2642 22.5518 11.4022 22.4138 11.5401 22.4138C11.678 22.4138 11.816 22.5518 11.816 22.6897C11.816 22.8276 11.678 22.9656 11.5401 22.9656Z" fill="#3583DD"/>
<path d="M16.5517 28.0229C16.5977 28.1149 16.6896 28.1608 16.7816 28.2068C16.9195 28.2068 17.0574 28.0689 17.0574 27.9309C17.0574 27.793 16.9195 27.6551 16.7816 27.6551C16.6436 27.6551 16.5057 27.793 16.5057 27.9309C16.5517 27.9769 16.5517 27.9769 16.5517 28.0229Z" fill="#3583DD"/>
<path d="M6.3447 18.9654C6.48263 18.9654 6.62056 18.8275 6.62056 18.6895C6.62056 18.5516 6.48263 18.4137 6.3447 18.4137C6.20677 18.4137 6.06883 18.5516 6.06883 18.6895C6.06883 18.8275 6.20677 18.9654 6.3447 18.9654Z" fill="#3583DD"/>
<path d="M18.8506 30.8736C18.8506 31.1035 19.0345 31.2874 19.2644 31.2874C19.4943 31.2874 19.6782 31.1035 19.6782 30.8736C19.6782 30.6897 19.5862 30.5517 19.4483 30.5057V20.2069L17.7931 18.6437L6.75861 18.5517C6.71264 18.4138 6.52873 18.3218 6.3908 18.3218C6.16092 18.3218 5.97701 18.5058 5.97701 18.7356C5.97701 18.9655 6.16092 19.1494 6.3908 19.1494C6.57471 19.1494 6.71264 19.0575 6.75861 18.8736L17.6552 18.9196L19.2184 20.3908V30.5057C18.9885 30.5057 18.8506 30.6437 18.8506 30.8736ZM6.06896 18.6897C6.06896 18.5517 6.20689 18.4138 6.34482 18.4138C6.48275 18.4138 6.62069 18.5517 6.62069 18.6897C6.62069 18.8276 6.48275 18.9655 6.34482 18.9655C6.20689 18.9655 6.06896 18.8276 6.06896 18.6897ZM19.2644 30.5977C19.4023 30.5977 19.5402 30.7357 19.5402 30.8736C19.5402 31.0115 19.4023 31.1494 19.2644 31.1494C19.1264 31.1494 18.9885 31.0115 18.9885 30.8736C18.9885 30.6897 19.0805 30.5977 19.2644 30.5977Z" fill="#3583DD"/>
<path d="M18.9884 30.8734C18.9884 31.0114 19.1263 31.1493 19.2643 31.1493C19.4022 31.1493 19.5401 31.0114 19.5401 30.8734C19.5401 30.7355 19.4022 30.5976 19.2643 30.5976C19.1263 30.5976 18.9884 30.6895 18.9884 30.8734Z" fill="#3583DD"/>
<path d="M6.3447 17.5403C6.48263 17.5403 6.62056 17.4023 6.62056 17.2644C6.62056 17.1265 6.48263 16.9886 6.3447 16.9886C6.20677 16.9886 6.06883 17.1265 6.06883 17.2644C6.06883 17.4483 6.20677 17.5403 6.3447 17.5403Z" fill="#3583DD"/>
<path d="M20.1839 32.2988C20.1839 32.5287 20.3678 32.7126 20.5977 32.7126C20.8275 32.7126 21.0114 32.5287 21.0114 32.2988C21.0114 32.1149 20.9195 31.977 20.7816 31.931V19.3333L18.6207 17.2184L6.71261 17.1264C6.62065 16.9885 6.52869 16.8965 6.34478 16.8965C6.1149 16.8965 5.93099 17.0804 5.93099 17.3103C5.93099 17.5402 6.1149 17.7241 6.34478 17.7241C6.52869 17.7241 6.66663 17.5862 6.71261 17.4482H18.4367L20.4138 19.4253L20.5057 31.885C20.3218 31.931 20.1839 32.1149 20.1839 32.2988ZM6.06892 17.3103C6.06892 17.2643 6.06892 17.2643 6.06892 17.3103C6.06892 17.1724 6.20685 17.0344 6.34478 17.0344C6.48271 17.0344 6.62065 17.1724 6.62065 17.3103C6.62065 17.4483 6.48271 17.5862 6.34478 17.5862C6.20685 17.5402 6.06892 17.4483 6.06892 17.3103ZM20.5977 32.023C20.7356 32.023 20.8735 32.1609 20.8735 32.2988C20.8735 32.4367 20.7356 32.5747 20.5977 32.5747C20.5057 32.5747 20.4137 32.4827 20.3678 32.3908C20.3678 32.3448 20.3678 32.3448 20.3678 32.2988C20.3218 32.1149 20.4597 32.023 20.5977 32.023Z" fill="#3583DD"/>
<path d="M20.3677 32.3907C20.4137 32.4827 20.5056 32.5286 20.5976 32.5746C20.7355 32.5746 20.8734 32.4367 20.8734 32.2987C20.8734 32.1608 20.7355 32.0229 20.5976 32.0229C20.4596 32.0229 20.3217 32.1608 20.3217 32.2987C20.3217 32.3447 20.3217 32.3447 20.3677 32.3907Z" fill="#3583DD"/>
<path d="M3.86194 16.1608C3.86194 16.0229 3.72401 15.8849 3.58608 15.8849C3.44815 15.8849 3.31021 16.0229 3.31021 16.1608C3.31021 16.2987 3.44815 16.4366 3.58608 16.4366C3.72401 16.4366 3.86194 16.2987 3.86194 16.1608Z" fill="#3583DD"/>
<path d="M19.4942 36.5287C19.7241 36.5287 19.908 36.3448 19.908 36.1149C19.908 35.885 19.7241 35.7011 19.4942 35.7011C19.4482 35.7011 19.4023 35.7011 19.3563 35.7471L3.7241 20.1609V16.5747C3.90801 16.5287 3.99995 16.3908 3.99995 16.1609C3.99995 15.931 3.81605 15.7471 3.58616 15.7471C3.35628 15.7471 3.17237 15.931 3.17237 16.1609C3.17237 16.3448 3.3103 16.4827 3.44824 16.5747V20.2528L19.1264 35.977C19.0804 36.0229 19.0804 36.0689 19.0804 36.1609C19.0804 36.3448 19.2643 36.5287 19.4942 36.5287ZM19.4482 35.839C19.5862 35.839 19.7241 35.977 19.7241 36.1149C19.7241 36.2528 19.5862 36.3908 19.4482 36.3908C19.3103 36.3908 19.1724 36.2528 19.1724 36.1149C19.1724 35.931 19.3103 35.839 19.4482 35.839ZM3.3103 16.1609C3.3103 15.977 3.44823 15.885 3.58616 15.885C3.72409 15.885 3.86203 16.0229 3.86203 16.1609C3.86203 16.2988 3.72409 16.4367 3.58616 16.4367C3.40225 16.4367 3.3103 16.2988 3.3103 16.1609Z" fill="#3583DD"/>
<path d="M19.4481 36.3908C19.5861 36.3908 19.724 36.2529 19.724 36.115C19.724 35.977 19.5861 35.8391 19.4481 35.8391C19.3102 35.8391 19.1723 35.977 19.1723 36.115C19.1723 36.2529 19.3102 36.3908 19.4481 36.3908Z" fill="#3583DD"/>
<path d="M4.78156 16.2528C4.78156 16.3907 4.9195 16.5287 5.05743 16.5287C5.19536 16.5287 5.33329 16.3907 5.33329 16.2528C5.33329 16.1149 5.19536 15.977 5.05743 15.977C4.87352 16.0229 4.78156 16.1149 4.78156 16.2528Z" fill="#3583DD"/>
<path d="M23.5402 38.9196C23.7701 38.9196 23.954 38.7357 23.954 38.5058C23.954 38.2759 23.7701 38.092 23.5402 38.092C23.4942 38.092 23.4483 38.092 23.4483 38.092L5.1954 19.931L5.14942 16.6667C5.33333 16.6207 5.42528 16.4828 5.42528 16.2529C5.42528 16.023 5.24138 15.8391 5.01149 15.8391C4.78161 15.8391 4.5977 16.023 4.5977 16.2529C4.5977 16.4368 4.73562 16.5747 4.91953 16.6667V19.977L23.1724 38.2759C23.1264 38.3219 23.1264 38.4138 23.1264 38.4598C23.1264 38.6897 23.3103 38.9196 23.5402 38.9196ZM23.5402 38.1839C23.6782 38.1839 23.8161 38.3219 23.8161 38.4598C23.8161 38.5977 23.6782 38.7357 23.5402 38.7357C23.4023 38.7357 23.2644 38.5977 23.2644 38.4598C23.2644 38.3219 23.4023 38.1839 23.5402 38.1839ZM4.78161 16.2529C4.78161 16.115 4.91954 15.977 5.05747 15.977C5.1954 15.977 5.33334 16.115 5.33334 16.2529C5.33334 16.3908 5.1954 16.5288 5.05747 16.5288C4.87356 16.5288 4.78161 16.4368 4.78161 16.2529Z" fill="#3583DD"/>
<path d="M23.5403 38.7355C23.6782 38.7355 23.8161 38.5976 23.8161 38.4597C23.8161 38.3217 23.6782 38.1838 23.5403 38.1838C23.4023 38.1838 23.2644 38.3217 23.2644 38.4597C23.2644 38.5976 23.4023 38.7355 23.5403 38.7355Z" fill="#3583DD"/>
<path d="M27.0345 28.2528C27.0345 28.0229 26.8506 27.839 26.6207 27.839C26.3908 27.839 26.2069 28.0229 26.2069 28.2528C26.2069 28.4367 26.2989 28.5746 26.4828 28.6206L26.5747 33.2642C26.3908 33.3102 26.2529 33.4482 26.2529 33.678C26.2529 33.9079 26.4368 34.0918 26.6667 34.0918C26.8965 34.0918 27.0805 33.9079 27.0805 33.678C27.0805 33.4941 26.9885 33.3562 26.8046 33.3102V28.6665C26.9425 28.5746 27.0345 28.4367 27.0345 28.2528ZM26.8965 33.678C26.8965 33.816 26.7586 33.9539 26.6207 33.9539C26.4828 33.9539 26.3448 33.816 26.3448 33.678C26.3448 33.5401 26.4828 33.4022 26.6207 33.4022C26.7586 33.4022 26.8965 33.5401 26.8965 33.678ZM26.6207 28.5286C26.4828 28.5286 26.3448 28.3907 26.3448 28.2528C26.3448 28.1148 26.4828 27.9769 26.6207 27.9769C26.7586 27.9769 26.8965 28.1148 26.8965 28.2528C26.8965 28.3907 26.7586 28.5286 26.6207 28.5286Z" fill="#3583DD"/>
<path d="M26.3447 33.6781C26.3447 33.816 26.4827 33.9539 26.6206 33.9539C26.7585 33.9539 26.8965 33.816 26.8965 33.6781C26.8965 33.5401 26.7585 33.4022 26.6206 33.4022C26.4827 33.4022 26.3447 33.5401 26.3447 33.6781Z" fill="#3583DD"/>
<path d="M26.8965 28.2529C26.8965 28.115 26.7585 27.977 26.6206 27.977C26.4827 27.977 26.3447 28.115 26.3447 28.2529C26.3447 28.3908 26.4827 28.5288 26.6206 28.5288C26.7585 28.5288 26.8965 28.3908 26.8965 28.2529Z" fill="#3583DD"/>
<path d="M26.2529 36.2989C26.4828 36.2989 26.6667 36.115 26.6667 35.8851C26.6667 35.6552 26.4828 35.4713 26.2529 35.4713C26.161 35.4713 26.115 35.5173 26.023 35.5173L24.6897 34.138V25.4023C24.8736 25.3564 25.0115 25.2184 25.0115 24.9885C25.0115 24.7587 24.8276 24.5748 24.5977 24.5748C24.3679 24.5748 24.184 24.7587 24.184 24.9885C24.184 25.1265 24.2759 25.2644 24.4138 25.3564L24.3679 34.3219L25.8391 35.7931C25.8391 35.8391 25.7931 35.8851 25.7931 35.9311C25.8391 36.115 26.023 36.2989 26.2529 36.2989ZM25.9771 35.8851C25.9771 35.7472 26.115 35.6093 26.2529 35.6093C26.3908 35.6093 26.5288 35.7472 26.5288 35.8851C26.5288 36.023 26.3908 36.161 26.2529 36.161C26.115 36.161 25.9771 36.023 25.9771 35.8851ZM24.3679 24.9885C24.3679 24.9426 24.3679 24.8966 24.3679 24.8966C24.3679 24.8966 24.3679 24.8506 24.4138 24.8506C24.4138 24.8506 24.4138 24.8047 24.4598 24.8047C24.4598 24.8047 24.5058 24.8046 24.5058 24.7587L24.5518 24.7127C24.5977 24.7127 24.5977 24.7127 24.6437 24.7127C24.6897 24.7127 24.7357 24.7127 24.7357 24.7127C24.7357 24.7127 24.7816 24.7127 24.7816 24.7587C24.7816 24.7587 24.8276 24.7587 24.8276 24.8047C24.8276 24.8047 24.8276 24.8506 24.8736 24.8506L24.9196 24.8966C24.9196 24.9426 24.9196 24.9426 24.9196 24.9885C24.9196 25.1265 24.7817 25.2644 24.6437 25.2644C24.5058 25.2644 24.3679 25.1265 24.3679 24.9885Z" fill="#3583DD"/>
<path d="M26.2529 36.161C26.3908 36.161 26.5287 36.023 26.5287 35.8851C26.5287 35.7472 26.3908 35.6093 26.2529 35.6093C26.1149 35.6093 25.977 35.7472 25.977 35.8851C26.023 36.023 26.1149 36.161 26.2529 36.161Z" fill="#3583DD"/>
<path d="M24.9195 24.9884C24.9195 24.9425 24.9195 24.8965 24.9195 24.8965C24.9195 24.8965 24.9195 24.8505 24.8736 24.8505C24.8736 24.8505 24.8736 24.8045 24.8276 24.8045C24.8276 24.8045 24.7816 24.8045 24.7816 24.7586L24.7356 24.7126C24.6896 24.7126 24.6897 24.7126 24.6437 24.7126C24.5977 24.7126 24.5517 24.7126 24.5517 24.7126C24.5517 24.7126 24.5057 24.7126 24.5057 24.7586C24.5057 24.7586 24.4598 24.7586 24.4598 24.8045C24.4598 24.8045 24.4598 24.8505 24.4138 24.8505L24.3678 24.8965C24.3678 24.9425 24.3678 24.9425 24.3678 24.9884C24.3678 25.1264 24.5057 25.2643 24.6437 25.2643C24.7816 25.2643 24.9195 25.1264 24.9195 24.9884Z" fill="#3583DD"/>
<path d="M25.1953 37.2183C25.4251 37.2183 25.6091 37.0344 25.6091 36.8045C25.6091 36.5746 25.4251 36.3907 25.1953 36.3907C25.1493 36.3907 25.1033 36.3907 25.1033 36.3907L23.4481 34.7355L23.4022 24.5286C23.5401 24.4826 23.678 24.2987 23.678 24.1608C23.678 23.9309 23.4941 23.747 23.2642 23.747C23.0344 23.747 22.8504 23.9309 22.8504 24.1608C22.8504 24.3447 22.9424 24.4826 23.0803 24.5286L23.1723 34.9194L24.8734 36.6206C24.8275 36.6666 24.8275 36.7585 24.8275 36.8505C24.7815 37.0344 24.9654 37.2183 25.1953 37.2183ZM25.1953 36.5286C25.3332 36.5286 25.4711 36.6666 25.4711 36.8045C25.4711 36.9424 25.3332 37.0804 25.1953 37.0804C25.0573 37.0804 24.9194 36.9424 24.9194 36.8045C24.9194 36.6206 25.0573 36.5286 25.1953 36.5286ZM22.9424 24.1149C22.9424 23.9309 23.0803 23.839 23.2183 23.839C23.3562 23.839 23.4941 23.9769 23.4941 24.1149C23.4941 24.2528 23.3562 24.3907 23.2183 24.3907C23.0803 24.3907 22.9424 24.2528 22.9424 24.1149Z" fill="#3583DD"/>
<path d="M25.1953 37.0345C25.3332 37.0345 25.4711 36.8966 25.4711 36.7586C25.4711 36.6207 25.3332 36.4828 25.1953 36.4828C25.0573 36.4828 24.9194 36.6207 24.9194 36.7586C24.9194 36.8966 25.0573 37.0345 25.1953 37.0345Z" fill="#3583DD"/>
<path d="M23.4942 24.115C23.4942 23.977 23.3563 23.8391 23.2183 23.8391C23.0804 23.8391 22.9425 23.977 22.9425 24.115C22.9425 24.2529 23.0804 24.3908 23.2183 24.3908C23.4023 24.3908 23.4942 24.2529 23.4942 24.115Z" fill="#3583DD"/>
<path d="M7.77003 20.2069C7.90796 20.2069 8.04589 20.0689 8.04589 19.931C8.04589 19.793 7.90796 19.6551 7.77003 19.6551C7.6321 19.6551 7.49416 19.793 7.49416 19.931C7.54014 20.1149 7.6321 20.2069 7.77003 20.2069Z" fill="#3583DD"/>
<path d="M18.4828 24.6206C18.4828 24.3907 18.2989 24.2068 18.069 24.2068C18.023 24.2068 17.9311 24.2068 17.8851 24.2527L13.3334 19.839L8.13796 19.747C8.04601 19.655 7.95407 19.5631 7.81613 19.5631C7.58625 19.5631 7.40234 19.747 7.40234 19.9769C7.40234 20.2068 7.58625 20.3907 7.81613 20.3907C8.00004 20.3907 8.18395 20.2528 8.22992 20.0688L13.2874 20.1608L17.7012 24.4826C17.6552 24.5286 17.6552 24.5746 17.6552 24.6665C17.6552 24.8964 17.8391 25.0803 18.069 25.0803C18.2989 25.0803 18.4828 24.8504 18.4828 24.6206ZM7.77015 20.2068C7.63222 20.2068 7.49429 20.0688 7.49429 19.9309C7.49429 19.793 7.63222 19.655 7.77015 19.655C7.90809 19.655 8.04602 19.793 8.04602 19.9309C8.092 20.1148 7.95406 20.2068 7.77015 20.2068ZM18.2989 24.5746C18.2989 24.7125 18.161 24.8504 18.023 24.8504C17.8851 24.8504 17.7472 24.7125 17.7472 24.5746C17.7472 24.4367 17.8851 24.2987 18.023 24.2987C18.161 24.2987 18.2989 24.4367 18.2989 24.5746Z" fill="#3583DD"/>
<path d="M18.023 24.2989C17.8851 24.2989 17.7472 24.4368 17.7472 24.5747C17.7472 24.7127 17.8851 24.8506 18.023 24.8506C18.161 24.8506 18.2989 24.7127 18.2989 24.5747C18.2989 24.4368 18.2069 24.2989 18.023 24.2989Z" fill="#3583DD"/>
<path d="M21.3333 33.816C21.3333 34.0458 21.5172 34.2298 21.7471 34.2298C21.977 34.2298 22.1609 34.0458 22.1609 33.816C22.1609 33.632 22.023 33.4482 21.8391 33.4022V18.4596L19.1724 15.8849L13.6552 15.9309C13.6092 15.793 13.4253 15.655 13.2874 15.655C13.0575 15.655 12.8736 15.8389 12.8736 16.0688C12.8736 16.2987 13.0575 16.4826 13.2874 16.4826C13.4713 16.4826 13.6552 16.3447 13.7011 16.1608H19.0345L21.5172 18.5976L21.6092 33.4022C21.4713 33.4482 21.3333 33.632 21.3333 33.816ZM13.6092 16.0688C13.6092 16.2068 13.4713 16.3447 13.3333 16.3447C13.1954 16.3447 13.0575 16.2068 13.0575 16.0688C13.0575 15.9309 13.1954 15.793 13.3333 15.793C13.4713 15.793 13.6092 15.8849 13.6092 16.0688ZM21.4713 33.77C21.4713 33.6321 21.6092 33.4941 21.7471 33.4941C21.8851 33.4941 22.023 33.6321 22.023 33.77C22.023 33.9079 21.8851 34.0458 21.7471 34.0458C21.5632 34.0458 21.4713 33.9539 21.4713 33.77Z" fill="#3583DD"/>
<path d="M21.747 34.046C21.8849 34.046 22.0229 33.9081 22.0229 33.7701C22.0229 33.6322 21.8849 33.4943 21.747 33.4943C21.6091 33.4943 21.4711 33.6322 21.4711 33.7701C21.4711 33.954 21.6091 34.046 21.747 34.046Z" fill="#3583DD"/>
<path d="M13.3333 15.7931C13.1954 15.7931 13.0574 15.931 13.0574 16.069C13.0574 16.2069 13.1954 16.3448 13.3333 16.3448C13.4712 16.3448 13.6092 16.2069 13.6092 16.069C13.6092 15.8851 13.4712 15.7931 13.3333 15.7931Z" fill="#3583DD"/>
<path d="M13.1953 13.4022C13.1953 13.5401 13.3332 13.678 13.4711 13.678C13.6091 13.678 13.747 13.5401 13.747 13.4022C13.747 13.2643 13.6091 13.1263 13.4711 13.1263C13.2872 13.1263 13.1953 13.2643 13.1953 13.4022Z" fill="#3583DD"/>
<path d="M13.839 13.5402H18.3908C18.4367 13.7242 18.5747 13.8621 18.8046 13.8621C19.0344 13.8621 19.2183 13.6782 19.2183 13.4483C19.2183 13.2184 19.0344 13.0345 18.8046 13.0345C18.6666 13.0345 18.5287 13.1264 18.4367 13.2644H13.839C13.7471 13.1264 13.6551 13.0345 13.4712 13.0345C13.2413 13.0345 13.0574 13.2184 13.0574 13.4483C13.0574 13.6782 13.2413 13.8621 13.4712 13.8621C13.6551 13.8161 13.7931 13.7242 13.839 13.5402ZM18.5287 13.4023C18.5287 13.2644 18.6666 13.1264 18.8046 13.1264C18.9425 13.1264 19.0804 13.2644 19.0804 13.4023C19.0804 13.5403 18.9425 13.6782 18.8046 13.6782C18.6206 13.6782 18.5287 13.5403 18.5287 13.4023ZM13.1954 13.4023C13.1954 13.2644 13.3333 13.1264 13.4712 13.1264C13.6091 13.1264 13.7471 13.2644 13.7471 13.4023C13.7471 13.5403 13.6091 13.6782 13.4712 13.6782C13.2873 13.6782 13.1954 13.5862 13.1954 13.4023Z" fill="#3583DD"/>
<path d="M18.8045 13.678C18.9424 13.678 19.0804 13.5401 19.0804 13.4022C19.0804 13.2643 18.9424 13.1263 18.8045 13.1263C18.6666 13.1263 18.5286 13.2643 18.5286 13.4022C18.5286 13.5401 18.6206 13.678 18.8045 13.678Z" fill="#3583DD"/>
<path d="M6.48276 15.4712C6.34483 15.4712 6.20689 15.6091 6.20689 15.747C6.20689 15.8849 6.34483 16.0229 6.48276 16.0229C6.62069 16.0229 6.75861 15.8849 6.75861 15.747C6.75861 15.5631 6.62069 15.4712 6.48276 15.4712Z" fill="#3583DD"/>
<path d="M11.3104 15.5172L6.85061 15.6091C6.80464 15.4252 6.66671 15.3333 6.43682 15.3333C6.20694 15.3333 6.02303 15.5172 6.02303 15.7471C6.02303 15.977 6.20694 16.1609 6.43682 16.1609C6.62073 16.1609 6.75866 16.0229 6.85061 15.885H11.4943L12.6437 14.7356L19.4023 14.6896C19.4483 14.8735 19.5862 14.9655 19.8161 14.9655C20.046 14.9655 20.2299 14.7816 20.2299 14.5517C20.2299 14.3218 20.046 14.1379 19.8161 14.1379C19.6322 14.1379 19.4943 14.2298 19.4483 14.4137H12.5058L11.3104 15.5172ZM6.4828 16.0229C6.34487 16.0229 6.20694 15.885 6.20694 15.7471C6.20694 15.6091 6.34487 15.4712 6.4828 15.4712C6.62073 15.4712 6.75865 15.6091 6.75865 15.7471C6.75865 15.885 6.66671 16.0229 6.4828 16.0229ZM19.5403 14.5517C19.5403 14.4138 19.6782 14.2758 19.8161 14.2758C19.9541 14.2758 20.092 14.4138 20.092 14.5517C20.092 14.6896 19.9541 14.8275 19.8161 14.8275C19.6322 14.8275 19.5403 14.6896 19.5403 14.5517Z" fill="#3583DD"/>
<path d="M19.8161 14.8275C19.954 14.8275 20.0919 14.6895 20.0919 14.5516C20.0919 14.4137 19.954 14.2757 19.8161 14.2757C19.6782 14.2757 19.5402 14.4137 19.5402 14.5516C19.5402 14.6895 19.6782 14.8275 19.8161 14.8275Z" fill="#3583DD"/>
<path d="M4.27573 14.5057C4.41366 14.5057 4.55159 14.3678 4.55159 14.2299C4.55159 14.092 4.41366 13.954 4.27573 13.954C4.1378 13.954 3.99986 14.092 3.99986 14.2299C3.99986 14.3678 4.1378 14.5057 4.27573 14.5057Z" fill="#3583DD"/>
<path d="M23.1264 13.4483C23.0344 13.4483 22.9885 13.4943 22.9425 13.4943L19.3563 9.86212H14.5747L10.4367 14.0001L4.64364 14.046C4.59766 13.9081 4.41374 13.7702 4.27581 13.7702C4.04593 13.7702 3.86202 13.9541 3.86202 14.1839C3.86202 14.4138 4.04593 14.5977 4.27581 14.5977C4.45972 14.5977 4.59765 14.4598 4.6896 14.3219H10.5287L14.7126 10.092H19.1724L22.7586 13.6782C22.7586 13.7242 22.7126 13.7702 22.7126 13.8161C22.7126 14.046 22.8965 14.2299 23.1264 14.2299C23.3563 14.2299 23.5402 14.046 23.5402 13.8161C23.5402 13.5862 23.3563 13.4483 23.1264 13.4483ZM4.27581 14.5058C4.13788 14.5058 3.99995 14.3679 3.99995 14.2299C3.99995 14.092 4.13788 13.9541 4.27581 13.9541C4.41374 13.9541 4.55168 14.092 4.55168 14.2299C4.55168 14.3679 4.41374 14.5058 4.27581 14.5058ZM23.1724 14.138C23.1264 14.138 23.1264 14.138 23.1724 14.138C23.1264 14.138 23.1264 14.138 23.1724 14.138C22.9885 14.138 22.8965 14.0001 22.8965 13.8621C22.8965 13.7242 23.0344 13.5862 23.1724 13.5862C23.3103 13.5862 23.4482 13.7242 23.4482 13.8621C23.4482 13.9081 23.4482 13.9081 23.4482 13.9541C23.3563 14.046 23.2643 14.138 23.1724 14.138Z" fill="#3583DD"/>
<path d="M23.4022 13.8619C23.4022 13.678 23.2642 13.5861 23.1263 13.5861C22.9884 13.5861 22.8504 13.724 22.8504 13.8619C22.8504 13.9999 22.9884 14.1378 23.1263 14.1378C23.2183 14.1378 23.3102 14.0458 23.3562 13.9999C23.4022 13.9539 23.4022 13.9079 23.4022 13.8619Z" fill="#3583DD"/>
<path d="M4.27573 13.1725C4.41366 13.1725 4.55159 13.0345 4.55159 12.8966C4.55159 12.7586 4.41366 12.6207 4.27573 12.6207C4.1378 12.6207 3.99986 12.7586 3.99986 12.8966C3.99986 13.0805 4.1378 13.1725 4.27573 13.1725Z" fill="#3583DD"/>
<path d="M9.88497 12.8046H4.6436C4.59762 12.6207 4.45968 12.5288 4.22979 12.5288C3.99991 12.5288 3.816 12.7127 3.816 12.9426C3.816 13.1724 3.99991 13.3563 4.22979 13.3563C4.4137 13.3563 4.55164 13.2184 4.6436 13.0805L9.93095 13.0345L13.885 9.12645L19.1264 9.08048C19.1723 9.21841 19.3562 9.31037 19.4942 9.31037C19.724 9.31037 19.908 9.12645 19.908 8.89656C19.908 8.66668 19.724 8.48279 19.4942 8.48279C19.3103 8.48279 19.1264 8.62072 19.0804 8.80463H13.747L9.88497 12.8046ZM4.27577 13.2184C4.13784 13.2184 3.99991 13.0805 3.99991 12.9426C3.99991 12.8046 4.13784 12.6667 4.27577 12.6667C4.4137 12.6667 4.55164 12.8046 4.55164 12.9426C4.55164 13.0805 4.4137 13.2184 4.27577 13.2184ZM19.5401 8.57475C19.6781 8.57475 19.816 8.71267 19.816 8.8506C19.816 8.98853 19.6781 9.12645 19.5401 9.12645C19.4022 9.12645 19.2643 8.98853 19.2643 8.8506C19.2643 8.71267 19.3562 8.57475 19.5401 8.57475Z" fill="#3583DD"/>
<path d="M19.5402 9.12632C19.6781 9.12632 19.816 8.9884 19.816 8.85047C19.816 8.71254 19.6781 8.57462 19.5402 8.57462C19.4023 8.57462 19.2643 8.71254 19.2643 8.85047C19.2643 9.03437 19.4023 9.12632 19.5402 9.12632Z" fill="#3583DD"/>
<path d="M16.092 4.39066C15.8621 4.39066 15.6782 4.57457 15.6782 4.80446C15.6782 5.03434 15.8621 5.21824 16.092 5.21824C16.138 5.21824 16.1839 5.21824 16.1839 5.21824L18.2069 7.24124C18.161 7.28721 18.161 7.3332 18.161 7.42516C18.161 7.65504 18.3449 7.83893 18.5748 7.83893C18.8046 7.83893 18.9885 7.65504 18.9885 7.42516C18.9885 7.19527 18.8046 7.01135 18.5748 7.01135C18.5288 7.01135 18.4828 7.01134 18.4368 7.05732L16.4598 5.08031C16.5058 5.03433 16.5058 4.94238 16.5058 4.85043C16.5058 4.57456 16.3219 4.39066 16.092 4.39066ZM16.092 5.08031C15.9541 5.08031 15.8161 4.94239 15.8161 4.80446C15.8161 4.66653 15.9541 4.52858 16.092 4.52858C16.2299 4.52858 16.3679 4.66653 16.3679 4.80446C16.3679 4.94239 16.2759 5.08031 16.092 5.08031ZM18.6207 7.10331C18.7587 7.10331 18.8966 7.24123 18.8966 7.37916C18.8966 7.51709 18.7587 7.65504 18.6207 7.65504C18.4828 7.65504 18.3449 7.51709 18.3449 7.37916C18.3449 7.24123 18.4368 7.10331 18.6207 7.10331Z" fill="#3583DD"/>
<path d="M18.6206 7.65521C18.7586 7.65521 18.8965 7.51727 18.8965 7.37934C18.8965 7.2414 18.7586 7.10349 18.6206 7.10349C18.4827 7.10349 18.3448 7.2414 18.3448 7.37934C18.3448 7.56324 18.4367 7.65521 18.6206 7.65521Z" fill="#3583DD"/>
<path d="M16.0919 4.52875C15.954 4.52875 15.816 4.6667 15.816 4.80463C15.816 4.94256 15.954 5.08048 16.0919 5.08048C16.2298 5.08048 16.3678 4.94256 16.3678 4.80463C16.3678 4.6667 16.2758 4.52875 16.0919 4.52875Z" fill="#3583DD"/>
<path d="M3.67812 10.6437C3.81605 10.6437 3.95398 10.5058 3.95398 10.3679C3.95398 10.2299 3.81605 10.092 3.67812 10.092C3.54019 10.092 3.40225 10.2299 3.40225 10.3679C3.44823 10.5058 3.54019 10.6437 3.67812 10.6437Z" fill="#3583DD"/>
<path d="M14.8506 4.06897C14.6667 4.06897 14.5288 4.20692 14.4368 4.34485H9.56325L3.90809 10C3.86211 9.95404 3.77016 9.95405 3.6782 9.95405C3.44832 9.95405 3.26441 10.1379 3.26441 10.3678C3.26441 10.5977 3.44832 10.7816 3.6782 10.7816C3.90809 10.7816 4.09199 10.5977 4.09199 10.3678C4.09199 10.3218 4.09199 10.2759 4.04601 10.2299L9.60923 4.6207H14.4368C14.4828 4.80461 14.6207 4.89658 14.8506 4.89658C15.0805 4.89658 15.2644 4.71266 15.2644 4.48277C15.2644 4.25289 15.0805 4.06897 14.8506 4.06897ZM3.6782 10.6437C3.54027 10.6437 3.40234 10.5058 3.40234 10.3678C3.40234 10.2299 3.54027 10.092 3.6782 10.092C3.81613 10.092 3.95407 10.2299 3.95407 10.3678C3.95407 10.5058 3.86211 10.6437 3.6782 10.6437ZM15.1265 4.48277C15.1265 4.62071 14.9885 4.75862 14.8506 4.75862C14.7127 4.75862 14.5747 4.62071 14.5747 4.48277C14.5747 4.34484 14.7127 4.20692 14.8506 4.20692C14.9885 4.20692 15.1265 4.29887 15.1265 4.48277Z" fill="#3583DD"/>
<path d="M14.8504 4.20682C14.7125 4.20682 14.5746 4.34474 14.5746 4.48267C14.5746 4.6206 14.7125 4.75852 14.8504 4.75852C14.9884 4.75852 15.1263 4.6206 15.1263 4.48267C15.1263 4.29876 14.9884 4.20682 14.8504 4.20682Z" fill="#3583DD"/>
<path d="M5.93095 10.7355C6.06888 10.7355 6.20681 10.5976 6.20681 10.4597C6.20681 10.3217 6.06888 10.1838 5.93095 10.1838C5.79302 10.1838 5.65508 10.3217 5.65508 10.4597C5.65508 10.6436 5.74704 10.7355 5.93095 10.7355Z" fill="#3583DD"/>
<path d="M14.7126 5.31021C14.5287 5.31021 14.3908 5.40217 14.3448 5.5401H10.5747L6.06892 10.1378C6.02294 10.0918 5.97697 10.0918 5.88501 10.0918C5.65513 10.0918 5.47122 10.2757 5.47122 10.5056C5.47122 10.7355 5.65513 10.9194 5.88501 10.9194C6.1149 10.9194 6.2988 10.7355 6.2988 10.5056C6.2988 10.4137 6.25284 10.3677 6.25284 10.2757L10.7126 5.81598L14.3448 5.86194C14.3908 5.99987 14.5747 6.09183 14.7126 6.09183C14.9425 6.09183 15.1264 5.90791 15.1264 5.67802C15.1264 5.49411 14.9425 5.31021 14.7126 5.31021ZM5.93099 10.7815C5.79306 10.7815 5.65513 10.6435 5.65513 10.5056C5.65513 10.3677 5.79306 10.2298 5.93099 10.2298C6.06892 10.2298 6.20686 10.3677 6.20686 10.5056C6.20686 10.6435 6.06892 10.7815 5.93099 10.7815ZM14.7126 5.99987C14.5747 5.99987 14.4367 5.86195 14.4367 5.72402C14.4367 5.58608 14.5747 5.44814 14.7126 5.44814C14.8505 5.44814 14.9885 5.58608 14.9885 5.72402C14.9885 5.86195 14.8965 5.99987 14.7126 5.99987Z" fill="#3583DD"/>
<path d="M14.7126 5.44827C14.5747 5.44827 14.4367 5.58622 14.4367 5.72415C14.4367 5.86208 14.5747 6 14.7126 6C14.8505 6 14.9885 5.86208 14.9885 5.72415C14.9885 5.54024 14.8505 5.44827 14.7126 5.44827Z" fill="#3583DD"/>
<path d="M7.90808 10.8276C8.04601 10.8276 8.18394 10.6897 8.18394 10.5517C8.18394 10.4138 8.04601 10.2758 7.90808 10.2758C7.77014 10.2758 7.63223 10.4138 7.63223 10.5517C7.63223 10.6897 7.77014 10.8276 7.90808 10.8276Z" fill="#3583DD"/>
<path d="M14.7126 7.14939C14.9424 7.14939 15.1263 6.9655 15.1263 6.73561C15.1263 6.50573 14.9424 6.32181 14.7126 6.32181C14.5287 6.32181 14.3447 6.45974 14.2988 6.64365H11.5401L8.04589 10.1839V10.2299C7.99992 10.2299 7.95393 10.1839 7.90795 10.1839C7.67807 10.1839 7.49416 10.3678 7.49416 10.5977C7.49416 10.8275 7.67807 11.0115 7.90795 11.0115C8.13784 11.0115 8.32176 10.8275 8.32176 10.5977C8.32176 10.5057 8.27578 10.4138 8.2298 10.3678L11.6781 6.9655L14.2988 6.9195C14.3907 7.01146 14.5287 7.14939 14.7126 7.14939ZM14.7126 6.45973C14.8505 6.45973 14.9884 6.59768 14.9884 6.73561C14.9884 6.87354 14.8505 7.01146 14.7126 7.01146C14.5746 7.01146 14.4367 6.87354 14.4367 6.73561C14.4367 6.5517 14.5746 6.45973 14.7126 6.45973ZM7.90795 10.8275C7.77002 10.8275 7.6321 10.6896 7.6321 10.5517C7.6321 10.4138 7.77002 10.2758 7.90795 10.2758C8.04588 10.2758 8.18382 10.4138 8.18382 10.5517C8.18382 10.7356 8.09186 10.8275 7.90795 10.8275Z" fill="#3583DD"/>
<path d="M14.7126 6.96558C14.8505 6.96558 14.9885 6.82763 14.9885 6.6897C14.9885 6.55177 14.8505 6.41385 14.7126 6.41385C14.5747 6.41385 14.4367 6.55177 14.4367 6.6897C14.4367 6.87361 14.5747 6.96558 14.7126 6.96558Z" fill="#3583DD"/>
<path d="M8.91945 11.2872C8.78152 11.2872 8.64359 11.4252 8.64359 11.5631C8.64359 11.701 8.78152 11.839 8.91945 11.839C9.05738 11.839 9.19532 11.701 9.19532 11.5631C9.19532 11.4252 9.05738 11.2872 8.91945 11.2872Z" fill="#3583DD"/>
<path d="M12.5058 8.39084C12.7357 8.39084 12.9196 8.20692 12.9196 7.97704C12.9196 7.74715 12.7357 7.56326 12.5058 7.56326C12.2759 7.56326 12.092 7.74715 12.092 7.97704C12.092 8.02302 12.092 8.11498 12.138 8.16096L9.10348 11.1954C9.0575 11.1954 9.01153 11.1495 8.96556 11.1495C8.73567 11.1495 8.55177 11.3334 8.55177 11.5633C8.55177 11.7932 8.73567 11.977 8.96556 11.977C9.19544 11.977 9.37935 11.7932 9.37935 11.5633C9.37935 11.4713 9.33337 11.4253 9.33337 11.3334L12.3679 8.34488C12.3679 8.39085 12.4138 8.39084 12.5058 8.39084ZM8.91958 11.8391C8.78164 11.8391 8.64371 11.7012 8.64371 11.5633C8.64371 11.4253 8.78164 11.2874 8.91958 11.2874C9.05751 11.2874 9.19544 11.4253 9.19544 11.5633C9.19544 11.7012 9.10348 11.8391 8.91958 11.8391ZM12.2299 7.97704C12.2299 7.83911 12.3678 7.70119 12.5058 7.70119C12.6437 7.70119 12.7816 7.83911 12.7816 7.97704C12.7816 8.11497 12.6437 8.25292 12.5058 8.25292C12.3219 8.25292 12.2299 8.11497 12.2299 7.97704Z" fill="#3583DD"/>
<path d="M12.4598 8.25284C12.5977 8.25284 12.7356 8.11489 12.7356 7.97696C12.7356 7.83903 12.5977 7.70111 12.4598 7.70111C12.3218 7.70111 12.1839 7.83903 12.1839 7.97696C12.2299 8.11489 12.3218 8.25284 12.4598 8.25284Z" fill="#3583DD"/>
<path d="M23.0804 16.0689C23.3103 16.0689 23.4942 15.885 23.4942 15.6551C23.4942 15.4252 23.3103 15.2413 23.0804 15.2413C23.0344 15.2413 22.9885 15.2413 22.9425 15.2873L18.8046 11.1953H15.2643C15.2183 11.0114 15.0804 10.8735 14.8505 10.8735C14.6206 10.8735 14.4367 11.0574 14.4367 11.2873C14.4367 11.5171 14.6206 11.7011 14.8505 11.7011C15.0344 11.7011 15.1724 11.5631 15.2184 11.4252L18.6206 11.4712L22.6666 15.4712C22.6206 15.5172 22.6206 15.6091 22.6206 15.6551C22.6666 15.885 22.8505 16.0689 23.0804 16.0689ZM22.8046 15.6551C22.8046 15.5171 22.9425 15.3792 23.0804 15.3792C23.2183 15.3792 23.3563 15.5171 23.3563 15.6551C23.3563 15.793 23.2183 15.9309 23.0804 15.9309C22.8965 15.9309 22.8046 15.793 22.8046 15.6551ZM15.1264 11.2873C15.1264 11.4252 14.9885 11.5631 14.8505 11.5631C14.7126 11.5631 14.5747 11.4252 14.5747 11.2873C14.5747 11.1493 14.7126 11.0114 14.8505 11.0114C14.9885 11.0114 15.1264 11.1033 15.1264 11.2873Z" fill="#3583DD"/>
<path d="M23.0805 15.9311C23.2184 15.9311 23.3564 15.7931 23.3564 15.6552C23.3564 15.5173 23.2184 15.3794 23.0805 15.3794C22.9426 15.3794 22.8046 15.5173 22.8046 15.6552C22.8046 15.7931 22.9426 15.9311 23.0805 15.9311Z" fill="#3583DD"/>
<path d="M14.8504 11.0115C14.7125 11.0115 14.5746 11.1495 14.5746 11.2874C14.5746 11.4253 14.7125 11.5633 14.8504 11.5633C14.9884 11.5633 15.1263 11.4253 15.1263 11.2874C15.1263 11.1035 14.9884 11.0115 14.8504 11.0115Z" fill="#3583DD"/>
<path d="M9.47122 21.3103C9.47122 21.3103 9.47122 21.2643 9.47122 21.3103C9.47122 21.1723 9.33329 21.0344 9.19536 21.0344C9.05743 21.0344 8.91949 21.1723 8.91949 21.3103C8.91949 21.3563 8.91949 21.3563 8.91949 21.4022C8.96547 21.4942 9.05743 21.5402 9.14938 21.5862C9.37926 21.5862 9.47122 21.4482 9.47122 21.3103Z" fill="#3583DD"/>
<path d="M17.7931 26.7357C18.023 26.7357 18.2069 26.5518 18.2069 26.3219C18.2069 26.092 18.023 25.9081 17.7931 25.9081C17.7472 25.9081 17.7012 25.9081 17.6552 25.9541L12.8276 21.1265H9.56326C9.4713 20.9886 9.37935 20.8966 9.19544 20.8966C8.96556 20.8966 8.78165 21.0805 8.78165 21.3104C8.78165 21.5403 8.96556 21.7242 9.19544 21.7242C9.37935 21.7242 9.51728 21.5863 9.60923 21.4483H12.7357L17.3793 26.138C17.3334 26.1839 17.3334 26.2299 17.3334 26.3219C17.3334 26.5518 17.5633 26.7357 17.7931 26.7357ZM17.7931 26C17.9311 26 18.069 26.138 18.069 26.2759C18.069 26.4139 17.9311 26.5518 17.7931 26.5518C17.6552 26.5518 17.5173 26.4139 17.5173 26.2759C17.5173 26.138 17.6092 26 17.7931 26ZM9.19544 21.5863C9.05751 21.5863 8.96556 21.4943 8.96556 21.4023C8.96556 21.3564 8.96556 21.3564 8.96556 21.3104C8.96556 21.1725 9.10349 21.0345 9.24142 21.0345C9.37936 21.0345 9.51728 21.1725 9.51728 21.3104C9.4713 21.4483 9.37935 21.5863 9.19544 21.5863Z" fill="#3583DD"/>
<path d="M17.7931 26.5516C17.9311 26.5516 18.069 26.4137 18.069 26.2758C18.069 26.1378 17.9311 25.9999 17.7931 25.9999C17.6552 25.9999 17.5173 26.1378 17.5173 26.2758C17.5173 26.4137 17.6092 26.5516 17.7931 26.5516Z" fill="#3583DD"/>
<path d="M28.2299 28.2528C28.2299 28.0229 28.046 27.839 27.8161 27.839C27.5862 27.839 27.4023 28.0229 27.4023 28.2528C27.4023 28.4367 27.5402 28.5746 27.6781 28.6665L27.6322 33.3102C27.4943 33.3562 27.3563 33.5401 27.3563 33.678C27.3563 33.9079 27.5402 34.0918 27.7701 34.0918C28 34.0918 28.1839 33.9079 28.1839 33.678C28.1839 33.4941 28.0919 33.3562 27.908 33.3102V28.6665C28.0919 28.5746 28.2299 28.4367 28.2299 28.2528ZM28.092 33.678C28.092 33.816 27.954 33.9539 27.8161 33.9539C27.6782 33.9539 27.5402 33.816 27.5402 33.678C27.5402 33.5401 27.6782 33.4022 27.8161 33.4022C27.954 33.4022 28.092 33.5401 28.092 33.678ZM27.8161 28.5286C27.6782 28.5286 27.5402 28.3907 27.5402 28.2528C27.5402 28.1148 27.6782 27.9769 27.8161 27.9769C27.954 27.9769 28.092 28.1148 28.092 28.2528C28.092 28.3907 27.954 28.5286 27.8161 28.5286Z" fill="#3583DD"/>
<path d="M27.5402 33.6781C27.5402 33.816 27.6781 33.9539 27.816 33.9539C27.954 33.9539 28.0919 33.816 28.0919 33.6781C28.0919 33.5401 27.954 33.4022 27.816 33.4022C27.6781 33.4022 27.5402 33.5401 27.5402 33.6781Z" fill="#3583DD"/>
<path d="M28.0919 28.2529C28.0919 28.115 27.954 27.977 27.816 27.977C27.6781 27.977 27.5402 28.115 27.5402 28.2529C27.5402 28.3908 27.6781 28.5288 27.816 28.5288C27.954 28.5288 28.0919 28.3908 28.0919 28.2529Z" fill="#3583DD"/>
<path d="M33.6552 27.1955C33.7931 27.1955 33.9311 27.0575 33.9311 26.9196C33.9311 26.7817 33.7931 26.6437 33.6552 26.6437C33.5173 26.6437 33.3794 26.7817 33.3794 26.9196C33.3794 27.0575 33.4713 27.1955 33.6552 27.1955Z" fill="#3583DD"/>
<path d="M41.4711 19.3793C41.701 19.3793 41.8849 19.1954 41.8849 18.9655C41.8849 18.7356 41.701 18.5517 41.4711 18.5517C41.2412 18.5517 41.0573 18.7356 41.0573 18.9655C41.0573 19.0115 41.0573 19.0575 41.0573 19.0575L33.793 26.5517C33.747 26.5058 33.701 26.5058 33.6091 26.5058C33.3792 26.5058 33.1953 26.6897 33.1953 26.9195C33.1953 27.1494 33.3792 27.3334 33.6091 27.3334C33.839 27.3334 34.0228 27.1494 34.0228 26.9195C34.0228 26.8276 33.9769 26.7356 33.9309 26.6897L41.3332 19.3793C41.4252 19.3793 41.4711 19.3793 41.4711 19.3793ZM33.655 27.1954C33.5171 27.1954 33.3792 27.0575 33.3792 26.9195C33.3792 26.7816 33.5171 26.6437 33.655 26.6437C33.793 26.6437 33.9309 26.7816 33.9309 26.9195C33.9309 27.0575 33.793 27.1954 33.655 27.1954ZM41.1953 18.9655C41.1953 18.8276 41.3332 18.6897 41.4711 18.6897C41.6091 18.6897 41.747 18.8276 41.747 18.9655C41.747 19.1035 41.6091 19.2414 41.4711 19.2414C41.3332 19.2414 41.1953 19.1035 41.1953 18.9655Z" fill="#3583DD"/>
<path d="M41.4713 19.2413C41.6092 19.2413 41.7472 19.1034 41.7472 18.9654C41.7472 18.8275 41.6092 18.6896 41.4713 18.6896C41.3334 18.6896 41.1954 18.8275 41.1954 18.9654C41.1954 19.1034 41.3334 19.2413 41.4713 19.2413Z" fill="#3583DD"/>
<path d="M37.5173 10.1378C37.5173 10.3677 37.7012 10.5516 37.9311 10.5516C38.023 10.5516 38.069 10.5056 38.1609 10.5056L39.6782 12.0229V13.4941C39.4943 13.5401 39.3564 13.678 39.3564 13.9079C39.3564 14.1378 39.5403 14.3217 39.7701 14.3217C40 14.3217 40.1839 14.1378 40.1839 13.9079C40.1839 13.77 40.092 13.6321 39.9541 13.5401V11.839L38.2989 10.1838C38.2989 10.1378 38.2989 10.1378 38.2989 10.0918C38.2989 9.86196 38.115 9.67804 37.8851 9.67804C37.7012 9.72402 37.5173 9.90792 37.5173 10.1378ZM40.046 13.862C40.046 13.9999 39.9081 14.1378 39.7701 14.1378C39.6322 14.1378 39.4943 13.9999 39.4943 13.862C39.4943 13.724 39.6322 13.5861 39.7701 13.5861C39.9081 13.5861 40.046 13.6781 40.046 13.862ZM37.9311 9.86196C38.069 9.86196 38.2069 9.99988 38.2069 10.1378C38.2069 10.2757 38.069 10.4137 37.9311 10.4137C37.7931 10.4137 37.6552 10.2757 37.6552 10.1378C37.6552 9.99988 37.7931 9.86196 37.9311 9.86196Z" fill="#3583DD"/>
<path d="M39.4942 13.8619C39.4942 13.9999 39.6321 14.1378 39.7701 14.1378C39.908 14.1378 40.0459 13.9999 40.0459 13.8619C40.0459 13.724 39.908 13.5861 39.7701 13.5861C39.6321 13.5861 39.4942 13.678 39.4942 13.8619Z" fill="#3583DD"/>
<path d="M37.6551 10.138C37.6551 10.2759 37.793 10.4139 37.931 10.4139C38.0689 10.4139 38.2069 10.2759 38.2069 10.138C38.2069 10 38.0689 9.86212 37.931 9.86212C37.793 9.86212 37.6551 9.95406 37.6551 10.138Z" fill="#3583DD"/>
<path d="M37.793 8.43682C37.793 8.6667 37.9769 8.85062 38.2068 8.85062C38.2527 8.85062 38.2987 8.85062 38.2987 8.85062L40.7815 11.1035V13.5403C40.6435 13.5863 40.5056 13.7702 40.5056 13.9081C40.5056 14.138 40.6895 14.3219 40.9194 14.3219C41.1493 14.3219 41.3332 14.138 41.3332 13.9081C41.3332 13.7242 41.2413 13.5863 41.0573 13.5403L41.0114 10.9196L38.5746 8.62074C38.6206 8.57476 38.6205 8.48279 38.6205 8.43682C38.6205 8.20693 38.4367 8.02304 38.2068 8.02304C37.9769 8.02304 37.793 8.20693 37.793 8.43682ZM41.1953 13.9081C41.1953 14.046 41.0573 14.1839 40.9194 14.1839C40.7815 14.1839 40.6435 14.046 40.6435 13.9081C40.6435 13.7702 40.7815 13.6322 40.9194 13.6322C41.0573 13.6322 41.1953 13.7702 41.1953 13.9081ZM38.2068 8.16097C38.3447 8.16097 38.4826 8.29889 38.4826 8.43682C38.4826 8.57475 38.3447 8.7127 38.2068 8.7127C38.0688 8.7127 37.9309 8.57475 37.9309 8.43682C37.9309 8.25291 38.0688 8.16097 38.2068 8.16097Z" fill="#3583DD"/>
<path d="M40.6436 13.9079C40.6436 14.0459 40.7815 14.1838 40.9195 14.1838C41.0574 14.1838 41.1954 14.0459 41.1954 13.9079C41.1954 13.77 41.0574 13.6321 40.9195 13.6321C40.7815 13.6321 40.6436 13.77 40.6436 13.9079Z" fill="#3583DD"/>
<path d="M37.931 8.43674C37.931 8.57467 38.069 8.71262 38.2069 8.71262C38.3448 8.71262 38.4828 8.57467 38.4828 8.43674C38.4828 8.29881 38.3448 8.16089 38.2069 8.16089C38.069 8.16089 37.931 8.25283 37.931 8.43674Z" fill="#3583DD"/>
<path d="M38.3448 6.0459C38.1149 6.0459 37.931 6.22979 37.931 6.45967C37.931 6.68956 38.1149 6.87348 38.3448 6.87348C38.3908 6.87348 38.4368 6.87346 38.4828 6.82749L41.977 10.3218V13.3562C41.7931 13.4022 41.7012 13.5401 41.7012 13.724C41.7012 13.9539 41.8851 14.1378 42.115 14.1378C42.3448 14.1378 42.5287 13.9539 42.5287 13.724C42.5287 13.5861 42.4368 13.4482 42.2988 13.3562L42.2529 10.1838L38.7126 6.55163C38.7126 6.50566 38.7586 6.45969 38.7586 6.41371C38.7586 6.2298 38.5747 6.0459 38.3448 6.0459ZM38.6207 6.45967C38.6207 6.59761 38.4828 6.73555 38.3448 6.73555C38.2069 6.73555 38.069 6.59761 38.069 6.45967C38.069 6.32174 38.2069 6.18382 38.3448 6.18382C38.4828 6.18382 38.6207 6.27577 38.6207 6.45967ZM42.3908 13.724C42.3908 13.724 42.3908 13.77 42.3908 13.724C42.3908 13.77 42.3908 13.77 42.3908 13.724C42.3908 13.862 42.2529 13.9999 42.115 13.9999C41.977 13.9999 41.8391 13.862 41.8391 13.724C41.8391 13.5861 41.977 13.4482 42.115 13.4482C42.2529 13.4482 42.3908 13.5861 42.3908 13.724Z" fill="#3583DD"/>
<path d="M41.8391 13.7241C41.8391 13.7241 41.8391 13.7701 41.8391 13.7241C41.8391 13.862 41.977 14 42.115 14C42.2529 14 42.3908 13.862 42.3908 13.7241C42.3908 13.5862 42.2529 13.4482 42.115 13.4482C41.977 13.4482 41.8391 13.5862 41.8391 13.7241Z" fill="#3583DD"/>
<path d="M38.3447 6.18396C38.2068 6.18396 38.0689 6.32188 38.0689 6.45981C38.0689 6.59774 38.2068 6.73569 38.3447 6.73569C38.4827 6.73569 38.6206 6.59774 38.6206 6.45981C38.6206 6.2759 38.4827 6.18396 38.3447 6.18396Z" fill="#3583DD"/>
<path d="M37.5631 12.7585C37.5631 12.8964 37.701 13.0344 37.839 13.0344C37.9769 13.0344 38.1148 12.8964 38.1148 12.7585C38.1148 12.6206 37.9769 12.4827 37.839 12.4827C37.6551 12.4827 37.5631 12.5746 37.5631 12.7585Z" fill="#3583DD"/>
<path d="M37.4252 16.4367C37.4252 16.6666 37.6092 16.8505 37.839 16.8505C38.0689 16.8505 38.2528 16.6666 38.2528 16.4367C38.2528 16.2988 38.1609 16.1609 38.0689 16.0689V13.0804C38.2069 12.9885 38.2528 12.8965 38.2528 12.7126C38.2528 12.4827 38.0689 12.2988 37.839 12.2988C37.6092 12.2988 37.4252 12.4827 37.4252 12.7126C37.4252 12.8965 37.5172 13.0344 37.6551 13.0804V16.0229C37.5172 16.1149 37.4252 16.2528 37.4252 16.4367ZM37.839 12.4827C37.977 12.4827 38.1149 12.6206 38.1149 12.7586C38.1149 12.8965 37.977 13.0344 37.839 13.0344C37.7011 13.0344 37.5632 12.8965 37.5632 12.7586C37.5632 12.5747 37.6551 12.4827 37.839 12.4827ZM37.839 16.1609C37.977 16.1609 38.1149 16.2988 38.1149 16.4367C38.1149 16.5747 37.977 16.7126 37.839 16.7126C37.7011 16.7126 37.5632 16.5747 37.5632 16.4367C37.5632 16.2528 37.6551 16.1609 37.839 16.1609Z" fill="#3583DD"/>
<path d="M37.5631 16.4367C37.5631 16.5746 37.701 16.7125 37.839 16.7125C37.9769 16.7125 38.1148 16.5746 38.1148 16.4367C38.1148 16.2987 37.9769 16.1608 37.839 16.1608C37.701 16.1608 37.5631 16.2528 37.5631 16.4367Z" fill="#3583DD"/>
<path d="M31.4482 4.29874C31.5861 4.29874 31.724 4.16082 31.724 4.02289C31.724 3.88496 31.5861 3.74704 31.4482 3.74704C31.3102 3.74704 31.1723 3.88496 31.1723 4.02289C31.1723 4.2068 31.3102 4.29874 31.4482 4.29874Z" fill="#3583DD"/>
<path d="M31.8621 4.023C31.8621 3.79311 31.6782 3.60919 31.4483 3.60919C31.2184 3.60919 31.0345 3.79311 31.0345 4.023C31.0345 4.2069 31.1264 4.34483 31.3104 4.39081V16.5287L32.8276 18.046H36.6897C36.7816 18.1839 36.8736 18.2759 37.0575 18.2759C37.2874 18.2759 37.4713 18.092 37.4713 17.8621C37.4713 17.6322 37.2874 17.4483 37.0575 17.4483C36.8736 17.4483 36.7356 17.5402 36.6897 17.7241L33.0115 17.7701L31.6322 16.4368L31.5862 4.39081C31.7701 4.34483 31.8621 4.2069 31.8621 4.023ZM36.7816 17.9081C36.7816 17.7701 36.9196 17.6322 37.0575 17.6322C37.1954 17.6322 37.3333 17.7701 37.3333 17.9081C37.3333 18.046 37.1954 18.1839 37.0575 18.1839C36.9196 18.1839 36.7816 18.046 36.7816 17.9081ZM31.4483 4.29885C31.3104 4.29885 31.1724 4.16093 31.1724 4.023C31.1724 3.88507 31.3104 3.74715 31.4483 3.74715C31.5862 3.74715 31.7241 3.88507 31.7241 4.023C31.7241 4.2069 31.5862 4.29885 31.4483 4.29885Z" fill="#3583DD"/>
<path d="M37.0575 18.1839C37.1954 18.1839 37.3333 18.046 37.3333 17.9081C37.3333 17.7701 37.1954 17.6322 37.0575 17.6322C36.9196 17.6322 36.7816 17.7701 36.7816 17.9081C36.7816 18.046 36.9196 18.1839 37.0575 18.1839Z" fill="#3583DD"/>
<path d="M30.2069 5.1723C30.2069 5.03437 30.069 4.89645 29.931 4.89645C29.7931 4.89645 29.6552 5.03437 29.6552 5.1723C29.6552 5.31024 29.7931 5.44816 29.931 5.44816C30.115 5.44816 30.2069 5.31024 30.2069 5.1723Z" fill="#3583DD"/>
<path d="M30.3447 5.21843C30.3447 4.98855 30.1608 4.80466 29.9309 4.80466C29.701 4.80466 29.5171 4.98855 29.5171 5.21843C29.5171 5.40234 29.6091 5.54029 29.747 5.58627L29.793 17.9081L31.816 19.9311H34.9424C34.9884 20.115 35.1263 20.2529 35.3562 20.2529C35.5861 20.2529 35.77 20.069 35.77 19.8391C35.77 19.6093 35.5861 19.4253 35.3562 19.4253C35.1723 19.4253 35.0343 19.5633 34.9424 19.7012H31.9079L30.0229 17.7702L30.1148 5.54028C30.2527 5.4943 30.3447 5.35636 30.3447 5.21843ZM35.3562 19.5173C35.4941 19.5173 35.632 19.6552 35.632 19.7932C35.632 19.9311 35.4941 20.069 35.3562 20.069C35.2183 20.069 35.0803 19.9311 35.0803 19.7932C35.0803 19.6552 35.2183 19.5173 35.3562 19.5173ZM29.655 5.17247C29.655 5.03454 29.793 4.89662 29.9309 4.89662C30.0688 4.89662 30.2068 5.03454 30.2068 5.17247C30.2068 5.3104 30.0688 5.44832 29.9309 5.44832C29.793 5.44832 29.655 5.35638 29.655 5.17247Z" fill="#3583DD"/>
<path d="M35.3562 20.069C35.4941 20.069 35.6321 19.9311 35.6321 19.7931C35.6321 19.6552 35.4941 19.5173 35.3562 19.5173C35.2183 19.5173 35.0804 19.6552 35.0804 19.7931C35.0804 19.9311 35.2183 20.069 35.3562 20.069Z" fill="#3583DD"/>
<path d="M36.4598 5.35639C36.4598 5.35639 36.5058 5.35637 36.5058 5.31039C36.5058 5.31039 36.5517 5.3104 36.5517 5.26443C36.5517 5.26443 36.5517 5.21843 36.5977 5.21843L36.6437 5.17247C36.6437 5.12649 36.6437 5.12648 36.6437 5.08051C36.6437 4.94258 36.5058 4.80466 36.3678 4.80466C36.2299 4.80466 36.0919 4.94258 36.0919 5.08051C36.0919 5.21844 36.2299 5.35639 36.3678 5.35639C36.4138 5.35639 36.4598 5.35639 36.4598 5.35639Z" fill="#3583DD"/>
<path d="M35.9081 15.9309C35.9081 16.1608 36.092 16.3447 36.3219 16.3447C36.5517 16.3447 36.7357 16.1608 36.7357 15.9309C36.7357 15.747 36.6437 15.6091 36.4598 15.5171V5.49415C36.6437 5.44817 36.7357 5.31023 36.7357 5.08034C36.7357 4.85046 36.5517 4.66656 36.3219 4.66656C36.092 4.66656 35.9081 4.85046 35.9081 5.08034C35.9081 5.26425 36 5.40217 36.1839 5.44815V15.5171C36.046 15.6091 35.9081 15.747 35.9081 15.9309ZM36.092 5.08034C36.092 4.94241 36.2299 4.80449 36.3679 4.80449C36.5058 4.80449 36.6437 4.94241 36.6437 5.08034C36.6437 5.12632 36.6437 5.1723 36.6437 5.1723C36.6437 5.1723 36.6437 5.21827 36.5977 5.21827C36.5977 5.21827 36.5977 5.26426 36.5517 5.26426C36.5517 5.26426 36.5058 5.26425 36.5058 5.31023L36.4598 5.35622C36.4138 5.35622 36.4138 5.35622 36.3679 5.35622C36.2299 5.35622 36.092 5.26425 36.092 5.08034ZM36.3679 15.6551C36.5058 15.6551 36.6437 15.793 36.6437 15.9309C36.6437 16.0689 36.5058 16.2068 36.3679 16.2068C36.2299 16.2068 36.092 16.0689 36.092 15.9309C36.092 15.793 36.184 15.6551 36.3679 15.6551Z" fill="#3583DD"/>
<path d="M36.0919 15.9309C36.0919 16.0688 36.2299 16.2068 36.3678 16.2068C36.5058 16.2068 36.6437 16.0688 36.6437 15.9309C36.6437 15.793 36.5058 15.655 36.3678 15.655C36.1839 15.655 36.0919 15.793 36.0919 15.9309Z" fill="#3583DD"/>
<path d="M34.6666 5.08051C34.6666 5.21844 34.8045 5.35639 34.9425 5.35639C35.0804 5.35639 35.2183 5.21844 35.2183 5.08051C35.2183 4.94258 35.0804 4.80466 34.9425 4.80466C34.8045 4.80466 34.6666 4.94258 34.6666 5.08051Z" fill="#3583DD"/>
<path d="M34.5288 15.931C34.5288 16.1609 34.7127 16.3448 34.9426 16.3448C35.1724 16.3448 35.3564 16.1609 35.3564 15.931C35.3564 15.7471 35.2644 15.6091 35.0805 15.5631V5.4942C35.2184 5.44822 35.3564 5.26432 35.3564 5.12639C35.3564 4.8965 35.1724 4.71259 34.9426 4.71259C34.7127 4.71259 34.5288 4.8965 34.5288 5.12639C34.5288 5.3103 34.6667 5.44822 34.8046 5.4942V15.5631C34.6667 15.6091 34.5288 15.7471 34.5288 15.931ZM34.6667 5.0804C34.6667 4.94246 34.8046 4.80455 34.9426 4.80455C35.0805 4.80455 35.2184 4.94246 35.2184 5.0804C35.2184 5.21833 35.0805 5.35627 34.9426 5.35627C34.8046 5.35627 34.6667 5.2643 34.6667 5.0804ZM34.9426 15.6551C35.0805 15.6551 35.2184 15.7931 35.2184 15.931C35.2184 16.0689 35.0805 16.2068 34.9426 16.2068C34.8046 16.2068 34.6667 16.0689 34.6667 15.931C34.6667 15.7931 34.8046 15.6551 34.9426 15.6551Z" fill="#3583DD"/>
<path d="M34.6666 15.9309C34.6666 16.0688 34.8045 16.2068 34.9425 16.2068C35.0804 16.2068 35.2183 16.0688 35.2183 15.9309C35.2183 15.793 35.0804 15.655 34.9425 15.655C34.8045 15.655 34.6666 15.793 34.6666 15.9309Z" fill="#3583DD"/>
<path d="M33.5171 4.80466C33.3792 4.80466 33.2413 4.94258 33.2413 5.08051C33.2413 5.17246 33.2873 5.26442 33.3792 5.31039C33.4252 5.31039 33.4712 5.35639 33.5171 5.35639C33.6551 5.35639 33.793 5.21844 33.793 5.08051C33.793 5.03453 33.747 4.94259 33.747 4.89662C33.701 4.80466 33.6091 4.80466 33.5171 4.80466Z" fill="#3583DD"/>
<path d="M33.1034 15.9309C33.1034 16.1608 33.2874 16.3447 33.5172 16.3447C33.7471 16.3447 33.9311 16.1608 33.9311 15.9309C33.9311 15.747 33.8391 15.6091 33.7012 15.5631V5.44815C33.8391 5.40217 33.9311 5.21827 33.9311 5.08034C33.9311 4.85046 33.7471 4.66656 33.5172 4.66656C33.2874 4.66656 33.1034 4.85046 33.1034 5.08034C33.1034 5.26425 33.2414 5.44817 33.4253 5.49415V15.5631C33.2874 15.5631 33.1034 15.747 33.1034 15.9309ZM33.2414 5.03438C33.2414 4.89644 33.3793 4.7585 33.5172 4.7585C33.6092 4.7585 33.6552 4.80448 33.7471 4.85046C33.7931 4.89643 33.7931 4.94242 33.7931 5.03438C33.7931 5.17231 33.6552 5.31023 33.5172 5.31023C33.4713 5.31023 33.4253 5.31024 33.3793 5.26426C33.3333 5.26426 33.2414 5.17231 33.2414 5.03438ZM33.2874 15.9309C33.2874 15.793 33.4253 15.6551 33.5632 15.6551C33.7011 15.6551 33.8391 15.793 33.8391 15.9309C33.8391 16.0689 33.7011 16.2068 33.5632 16.2068C33.3793 16.2068 33.2874 16.0689 33.2874 15.9309Z" fill="#3583DD"/>
<path d="M33.5171 16.2068C33.6551 16.2068 33.793 16.0688 33.793 15.9309C33.793 15.793 33.6551 15.655 33.5171 15.655C33.3792 15.655 33.2413 15.793 33.2413 15.9309C33.2873 16.0688 33.3792 16.2068 33.5171 16.2068Z" fill="#3583DD"/>
<path d="M42.115 16.0688C42.115 15.8389 41.931 15.655 41.7011 15.655C41.4713 15.655 41.2874 15.8389 41.2874 16.0688C41.2874 16.1148 41.2874 16.1608 41.3333 16.2068L32.5057 25.0344C32.4598 25.0344 32.4138 24.9884 32.3678 24.9884C32.1379 24.9884 31.954 25.1723 31.954 25.4022C31.954 25.632 32.1379 25.816 32.3678 25.816C32.5977 25.816 32.7816 25.632 32.7816 25.4022C32.7816 25.3102 32.7356 25.2183 32.6897 25.1723L41.5632 16.3907C41.6092 16.3907 41.6552 16.4366 41.7011 16.4366C41.931 16.4826 42.115 16.2987 42.115 16.0688ZM32.6437 25.4481C32.6437 25.5861 32.5058 25.724 32.3678 25.724C32.2299 25.724 32.092 25.5861 32.092 25.4481C32.092 25.3102 32.2299 25.1723 32.3678 25.1723C32.5058 25.1723 32.6437 25.3102 32.6437 25.4481ZM41.7011 16.3447C41.5632 16.3447 41.4713 16.2527 41.4713 16.1608C41.4713 16.1148 41.4713 16.1148 41.4713 16.0688C41.4713 15.9309 41.6092 15.793 41.7471 15.793C41.8851 15.793 42.023 15.9309 42.023 16.0688C41.977 16.2068 41.8391 16.3447 41.7011 16.3447Z" fill="#3583DD"/>
<path d="M41.9771 16.069C41.9771 15.931 41.8391 15.7931 41.7012 15.7931C41.5632 15.7931 41.4253 15.931 41.4253 16.069C41.4253 16.1149 41.4253 16.115 41.4253 16.1609C41.4713 16.2529 41.5633 16.2989 41.6552 16.2989C41.8391 16.3448 41.9771 16.2069 41.9771 16.069Z" fill="#3583DD"/>
<path d="M32.3677 25.1724C32.2298 25.1724 32.0919 25.3103 32.0919 25.4482C32.0919 25.5861 32.2298 25.7241 32.3677 25.7241C32.5056 25.7241 32.6436 25.5861 32.6436 25.4482C32.6436 25.3103 32.5056 25.1724 32.3677 25.1724Z" fill="#3583DD"/>
<path d="M23.9079 17.5861C24.0459 17.5401 24.1378 17.3562 24.1378 17.2183C24.1378 16.9884 23.9539 16.8045 23.724 16.8045C23.4941 16.8045 23.3102 16.9884 23.3102 17.2183C23.3102 17.4482 23.4482 17.5861 23.678 17.6321V22.4596L31.4022 30.2757C31.3562 30.3217 31.3562 30.4137 31.3562 30.4597C31.3562 30.6895 31.5401 30.8735 31.77 30.8735C31.9999 30.8735 32.1838 30.6895 32.1838 30.4597C32.1838 30.2298 31.9999 30.0458 31.77 30.0458C31.724 30.0458 31.724 30.0458 31.678 30.0458L23.9079 22.3217V17.5861ZM31.816 30.1378C31.9539 30.1378 32.0918 30.2758 32.0918 30.4137C32.0918 30.5516 31.9539 30.6895 31.816 30.6895C31.678 30.6895 31.5401 30.5516 31.5401 30.4137C31.5401 30.2758 31.6321 30.1378 31.816 30.1378ZM23.77 17.4482C23.6321 17.4482 23.4941 17.3102 23.4941 17.1723C23.4941 17.0344 23.6321 16.8964 23.77 16.8964C23.9079 16.8964 24.0458 17.0344 24.0458 17.1723C24.0458 17.3102 23.9079 17.4482 23.77 17.4482Z" fill="#3583DD"/>
<path d="M31.8161 30.6895C31.9541 30.6895 32.092 30.5516 32.092 30.4137C32.092 30.2757 31.9541 30.1378 31.8161 30.1378C31.6782 30.1378 31.5403 30.2757 31.5403 30.4137C31.5403 30.5516 31.6322 30.6895 31.8161 30.6895Z" fill="#3583DD"/>
<path d="M24.046 17.1724C24.046 17.0344 23.9081 16.8965 23.7701 16.8965C23.6322 16.8965 23.4943 17.0344 23.4943 17.1724C23.4943 17.3103 23.6322 17.4482 23.7701 17.4482C23.9081 17.4482 24.046 17.3103 24.046 17.1724Z" fill="#3583DD"/>
<path d="M29.0115 19.4713C29.0115 19.7012 29.1954 19.8851 29.4253 19.8851C29.4713 19.8851 29.5633 19.8851 29.6092 19.8391L32.138 22.4598C32.138 22.5058 32.138 22.5517 32.138 22.5517C32.138 22.7816 32.3219 22.9655 32.5518 22.9655C32.7817 22.9655 32.9655 22.7816 32.9655 22.5517C32.9655 22.3219 32.7817 22.138 32.5518 22.138C32.4598 22.138 32.4138 22.1839 32.3219 22.1839L29.7932 19.6552C29.8391 19.5632 29.8851 19.5173 29.8851 19.4253C29.8851 19.1954 29.7012 19.0115 29.4713 19.0115C29.2414 19.0115 29.0115 19.2414 29.0115 19.4713ZM32.5058 22.3219C32.6437 22.3219 32.7817 22.4598 32.7817 22.5977C32.7817 22.7357 32.6437 22.8736 32.5058 22.8736C32.3678 22.8736 32.2299 22.7357 32.2299 22.5977C32.2299 22.4598 32.3678 22.3219 32.5058 22.3219ZM29.7012 19.4713C29.7012 19.6092 29.5632 19.7472 29.4253 19.7472C29.2874 19.7472 29.1495 19.6092 29.1495 19.4713C29.1495 19.3333 29.2874 19.1954 29.4253 19.1954C29.5632 19.1954 29.7012 19.3333 29.7012 19.4713Z" fill="#3583DD"/>
<path d="M32.5058 22.8734C32.6581 22.8734 32.7817 22.7499 32.7817 22.5976C32.7817 22.4452 32.6581 22.3217 32.5058 22.3217C32.3534 22.3217 32.2299 22.4452 32.2299 22.5976C32.2299 22.7499 32.3534 22.8734 32.5058 22.8734Z" fill="#3583DD"/>
<path d="M29.1494 19.4712C29.1494 19.6092 29.2873 19.7471 29.4252 19.7471C29.5632 19.7471 29.7011 19.6092 29.7011 19.4712C29.7011 19.3333 29.5632 19.1954 29.4252 19.1954C29.2873 19.1954 29.1494 19.3333 29.1494 19.4712Z" fill="#3583DD"/>
<path d="M25.5171 12.1608C25.5171 11.9309 25.3332 11.747 25.1033 11.747C24.8734 11.747 24.6895 11.9309 24.6895 12.1608C24.6895 12.3447 24.8275 12.5286 25.0114 12.5746V22.2297L32.0458 29.3102C32.0458 29.3562 31.9999 29.4022 31.9999 29.4481C31.9999 29.678 32.1838 29.8619 32.4136 29.8619C32.6435 29.8619 32.8274 29.678 32.8274 29.4481C32.8274 29.2182 32.6435 29.0344 32.4136 29.0344C32.3217 29.0344 32.2757 29.0803 32.2298 29.0803L25.2412 22.1838L25.2872 12.5286C25.4252 12.4366 25.5171 12.2987 25.5171 12.1608ZM32.1378 29.4022C32.1378 29.2642 32.2757 29.1263 32.4136 29.1263C32.5516 29.1263 32.6895 29.2642 32.6895 29.4022C32.6895 29.5401 32.5516 29.678 32.4136 29.678C32.2757 29.678 32.1378 29.5401 32.1378 29.4022ZM25.1033 12.3907C24.9654 12.3907 24.8275 12.2527 24.8275 12.1148C24.8275 11.9769 24.9654 11.8389 25.1033 11.8389C25.2412 11.8389 25.3792 11.9769 25.3792 12.1148C25.3792 12.2527 25.2412 12.3907 25.1033 12.3907Z" fill="#3583DD"/>
<path d="M32.4137 29.6782C32.5517 29.6782 32.6896 29.5402 32.6896 29.4023C32.6896 29.2644 32.5517 29.1264 32.4137 29.1264C32.2758 29.1264 32.1379 29.2644 32.1379 29.4023C32.1379 29.5402 32.2758 29.6782 32.4137 29.6782Z" fill="#3583DD"/>
<path d="M25.3793 12.1149C25.3793 11.977 25.2414 11.8391 25.1034 11.8391C24.9655 11.8391 24.8276 11.977 24.8276 12.1149C24.8276 12.2528 24.9655 12.3908 25.1034 12.3908C25.2414 12.3908 25.3793 12.2988 25.3793 12.1149Z" fill="#3583DD"/>
<path d="M26.7586 8.85057C26.7586 8.62069 26.5747 8.43677 26.3448 8.43677C26.1149 8.43677 25.931 8.62069 25.931 8.85057C25.931 9.03448 26.0689 9.2184 26.2528 9.26438V21.6782L29.3793 24.8966C29.3793 24.9425 29.3333 24.9885 29.3333 25.0345C29.3333 25.2644 29.5172 25.4483 29.7471 25.4483C29.977 25.4483 30.1609 25.2644 30.1609 25.0345C30.1609 24.8046 29.977 24.6207 29.7471 24.6207C29.7011 24.6207 29.6551 24.6207 29.6551 24.6207L26.4827 21.5402L26.4367 9.21838C26.6666 9.21838 26.7586 9.03448 26.7586 8.85057ZM29.5172 25.0345C29.5172 24.8966 29.6551 24.7586 29.7931 24.7586C29.931 24.7586 30.0689 24.8966 30.0689 25.0345C30.0689 25.1724 29.931 25.3103 29.7931 25.3103C29.6092 25.3103 29.5172 25.1724 29.5172 25.0345ZM26.3448 9.12642C26.2068 9.12642 26.0689 8.9885 26.0689 8.85057C26.0689 8.71264 26.2068 8.57472 26.3448 8.57472C26.4827 8.57472 26.6206 8.71264 26.6206 8.85057C26.6206 8.9885 26.5287 9.12642 26.3448 9.12642Z" fill="#3583DD"/>
<path d="M29.793 25.3103C29.9309 25.3103 30.0688 25.1724 30.0688 25.0345C30.0688 24.8966 29.9309 24.7586 29.793 24.7586C29.6551 24.7586 29.5171 24.8966 29.5171 25.0345C29.5171 25.1724 29.6091 25.3103 29.793 25.3103Z" fill="#3583DD"/>
<path d="M26.3447 8.57462C26.2068 8.57462 26.0688 8.71254 26.0688 8.85047C26.0688 8.9884 26.2068 9.12632 26.3447 9.12632C26.4826 9.12632 26.6206 8.9884 26.6206 8.85047C26.6206 8.71254 26.5286 8.57462 26.3447 8.57462Z" fill="#3583DD"/>
<path d="M28.2757 8.89656C28.2757 8.66668 28.0918 8.48279 27.8619 8.48279C27.6321 8.48279 27.4481 8.66668 27.4481 8.89656C27.4481 9.08047 27.5401 9.21843 27.678 9.2644V20.9885L30.3907 23.5632C30.3907 23.6092 30.3907 23.6552 30.3907 23.7012C30.3907 23.9311 30.5746 24.115 30.8045 24.115C31.0343 24.115 31.2183 23.9311 31.2183 23.7012C31.2183 23.4713 31.0343 23.2874 30.8045 23.2874C30.7585 23.2874 30.7125 23.2874 30.6665 23.3334L27.9999 20.8506V9.35633C28.1378 9.2184 28.2757 9.08047 28.2757 8.89656ZM30.8045 23.3793C30.9424 23.3793 31.0803 23.5173 31.0803 23.6552C31.0803 23.7931 30.9424 23.9311 30.8045 23.9311C30.6665 23.9311 30.5286 23.7931 30.5286 23.6552C30.5286 23.5173 30.6205 23.3793 30.8045 23.3793ZM27.8619 9.12645C27.724 9.12645 27.5861 8.98853 27.5861 8.8506C27.5861 8.71267 27.724 8.57475 27.8619 8.57475C27.9999 8.57475 28.1378 8.71267 28.1378 8.8506C28.1378 8.98853 27.9999 9.12645 27.8619 9.12645Z" fill="#3583DD"/>
<path d="M30.8045 23.931C30.9425 23.931 31.0804 23.7931 31.0804 23.6552C31.0804 23.5173 30.9425 23.3793 30.8045 23.3793C30.6666 23.3793 30.5287 23.5173 30.5287 23.6552C30.5287 23.7931 30.6206 23.931 30.8045 23.931Z" fill="#3583DD"/>
<path d="M27.8621 8.57462C27.7241 8.57462 27.5862 8.71254 27.5862 8.85047C27.5862 8.9884 27.7241 9.12632 27.8621 9.12632C28 9.12632 28.1379 8.9884 28.1379 8.85047C28.1379 8.71254 28 8.57462 27.8621 8.57462Z" fill="#3583DD"/>
<path d="M60.4659 14.064L52.6899 33.392C52.6046 33.6053 52.4872 33.7653 52.3379 33.872C52.1886 33.9787 52.0179 34.032 51.8259 34.032C51.5272 34.032 51.3032 33.9573 51.1539 33.808C51.0046 33.6373 50.9192 33.4347 50.8979 33.2C50.8766 33.0933 50.8872 32.9653 50.9299 32.816L59.3779 12.144C59.4846 11.9093 59.6126 11.7493 59.7619 11.664C59.9326 11.5573 60.1246 11.504 60.3379 11.504C60.5512 11.504 60.7326 11.568 60.8819 11.696C61.0526 11.8027 61.1806 11.952 61.2659 12.144L69.6819 32.72C69.7246 32.848 69.7459 32.976 69.7459 33.104C69.7459 33.4027 69.6499 33.6373 69.4579 33.808C69.2659 33.9573 69.0419 34.032 68.7859 34.032C68.5726 34.032 68.3806 33.9787 68.2099 33.872C68.0606 33.744 67.9432 33.584 67.8579 33.392L59.8899 13.936L60.4659 14.064ZM54.5459 27.536L55.3459 25.648H65.2659L65.6499 27.536H54.5459ZM74.0486 33.04C74.0486 33.296 73.9526 33.52 73.7606 33.712C73.5686 33.904 73.3446 34 73.0886 34C72.8113 34 72.5766 33.904 72.3846 33.712C72.214 33.52 72.1286 33.296 72.1286 33.04V11.28C72.1286 11.024 72.2246 10.8 72.4166 10.608C72.6086 10.416 72.8326 10.32 73.0886 10.32C73.366 10.32 73.59 10.416 73.7606 10.608C73.9526 10.8 74.0486 11.024 74.0486 11.28V33.04ZM76.8351 17.296C77.0058 17.296 77.1765 17.3493 77.3471 17.456C77.5178 17.5627 77.6458 17.7227 77.7311 17.936L83.3311 31.248L82.9151 31.504L88.6431 17.936C88.8138 17.5093 89.1231 17.3067 89.5711 17.328C89.7845 17.328 89.9871 17.4027 90.1791 17.552C90.3711 17.68 90.4671 17.872 90.4671 18.128C90.4671 18.256 90.4458 18.3627 90.4031 18.448C90.3818 18.512 90.3605 18.5867 90.3391 18.672L84.0671 33.392C83.8965 33.776 83.6085 33.9787 83.2031 34C83.0111 34.0213 82.8191 33.9787 82.6271 33.872C82.4565 33.744 82.3285 33.584 82.2431 33.392L75.9391 18.672C75.9178 18.6293 75.8965 18.5653 75.8751 18.48C75.8538 18.3947 75.8431 18.3093 75.8431 18.224C75.8431 17.9893 75.9285 17.776 76.0991 17.584C76.2698 17.392 76.5151 17.296 76.8351 17.296ZM94.7326 33.04C94.7326 33.296 94.6366 33.52 94.4446 33.712C94.2526 33.904 94.0286 34 93.7726 34C93.4953 34 93.2606 33.904 93.0686 33.712C92.898 33.52 92.8126 33.296 92.8126 33.04V18.32C92.8126 18.064 92.898 17.84 93.0686 17.648C93.2606 17.456 93.4953 17.36 93.7726 17.36C94.05 17.36 94.274 17.456 94.4446 17.648C94.6366 17.84 94.7326 18.064 94.7326 18.32V33.04ZM93.7726 15.216C93.3246 15.216 92.9833 15.12 92.7486 14.928C92.5353 14.7147 92.4286 14.416 92.4286 14.032V13.712C92.4286 13.328 92.546 13.04 92.7806 12.848C93.0366 12.6347 93.378 12.528 93.8046 12.528C94.21 12.528 94.5193 12.6347 94.7326 12.848C94.9673 13.04 95.0846 13.328 95.0846 13.712V14.032C95.0846 14.416 94.9673 14.7147 94.7326 14.928C94.5193 15.12 94.1993 15.216 93.7726 15.216ZM105.8 17.52C107.123 17.52 108.254 17.872 109.192 18.576C110.131 19.2587 110.771 20.2827 111.112 21.648L110.664 21.776L110.856 21.2C111.134 20.56 111.592 19.9627 112.232 19.408C112.894 18.832 113.64 18.3733 114.472 18.032C115.304 17.6907 116.147 17.52 117 17.52C118.344 17.52 119.422 17.808 120.232 18.384C121.064 18.96 121.662 19.7387 122.024 20.72C122.408 21.68 122.6 22.768 122.6 23.984V33.04C122.6 33.296 122.504 33.52 122.312 33.712C122.142 33.904 121.918 34 121.64 34C121.363 34 121.128 33.904 120.936 33.712C120.766 33.52 120.68 33.296 120.68 33.04V24.08C120.68 23.2053 120.542 22.4053 120.264 21.68C119.987 20.9547 119.55 20.3787 118.952 19.952C118.355 19.5253 117.555 19.312 116.552 19.312C115.678 19.312 114.835 19.5253 114.024 19.952C113.235 20.3787 112.584 20.9547 112.072 21.68C111.582 22.4053 111.336 23.2053 111.336 24.08V33.04C111.336 33.296 111.24 33.52 111.048 33.712C110.878 33.904 110.654 34 110.376 34C110.099 34 109.864 33.904 109.672 33.712C109.502 33.52 109.416 33.296 109.416 33.04V23.984C109.416 23.1093 109.288 22.32 109.032 21.616C108.776 20.912 108.36 20.3573 107.784 19.952C107.208 19.5253 106.43 19.312 105.448 19.312C104.574 19.312 103.742 19.5253 102.952 19.952C102.184 20.3573 101.555 20.912 101.064 21.616C100.595 22.32 100.36 23.1093 100.36 23.984V33.04C100.36 33.296 100.264 33.52 100.072 33.712C99.8804 33.904 99.6564 34 99.4004 34C99.1017 34 98.8671 33.904 98.6964 33.712C98.5257 33.52 98.4404 33.296 98.4404 33.04V18.704C98.4404 18.448 98.5257 18.224 98.6964 18.032C98.8884 17.84 99.1231 17.744 99.4004 17.744C99.6777 17.744 99.9017 17.84 100.072 18.032C100.264 18.224 100.36 18.448 100.36 18.704V21.68L99.4964 22.864C99.5604 22.224 99.7631 21.584 100.104 20.944C100.467 20.304 100.936 19.728 101.512 19.216C102.088 18.704 102.739 18.2987 103.464 18C104.211 17.68 104.99 17.52 105.8 17.52ZM128.204 33.04C128.204 33.296 128.108 33.52 127.916 33.712C127.724 33.904 127.5 34 127.244 34C126.967 34 126.732 33.904 126.54 33.712C126.369 33.52 126.284 33.296 126.284 33.04V18.32C126.284 18.064 126.369 17.84 126.54 17.648C126.732 17.456 126.967 17.36 127.244 17.36C127.521 17.36 127.745 17.456 127.916 17.648C128.108 17.84 128.204 18.064 128.204 18.32V33.04ZM127.244 15.216C126.796 15.216 126.455 15.12 126.22 14.928C126.007 14.7147 125.9 14.416 125.9 14.032V13.712C125.9 13.328 126.017 13.04 126.252 12.848C126.508 12.6347 126.849 12.528 127.276 12.528C127.681 12.528 127.991 12.6347 128.204 12.848C128.439 13.04 128.556 13.328 128.556 13.712V14.032C128.556 14.416 128.439 14.7147 128.204 14.928C127.991 15.12 127.671 15.216 127.244 15.216ZM132.872 34C132.573 34 132.338 33.904 132.168 33.712C131.997 33.52 131.912 33.296 131.912 33.04V18.704C131.912 18.448 131.997 18.224 132.168 18.032C132.36 17.84 132.594 17.744 132.872 17.744C133.149 17.744 133.373 17.84 133.544 18.032C133.736 18.224 133.832 18.448 133.832 18.704V23.504L133.352 23.6C133.416 22.8533 133.597 22.1173 133.896 21.392C134.216 20.6453 134.642 19.9627 135.176 19.344C135.709 18.7253 136.338 18.224 137.064 17.84C137.81 17.456 138.642 17.264 139.56 17.264C139.944 17.264 140.317 17.3493 140.68 17.52C141.042 17.6693 141.224 17.9253 141.224 18.288C141.224 18.608 141.138 18.8533 140.968 19.024C140.797 19.1947 140.594 19.28 140.36 19.28C140.168 19.28 139.954 19.2267 139.72 19.12C139.506 19.0133 139.218 18.96 138.856 18.96C138.258 18.96 137.661 19.1413 137.064 19.504C136.466 19.8453 135.922 20.3147 135.432 20.912C134.941 21.5093 134.546 22.1813 134.248 22.928C133.97 23.6533 133.832 24.3893 133.832 25.136V33.04C133.832 33.296 133.736 33.52 133.544 33.712C133.352 33.904 133.128 34 132.872 34Z" fill="#3583DD"/>
</svg>
